<?xml version="1.0" encoding="UTF-8" standalone="no"?>
<svg width="720px" height="512px" viewBox="0 0 720 512" version="1.1" xmlns="http://www.w3.org/2000/svg" xmlns:xlink="http://www.w3.org/1999/xlink">
    <!-- Generator: Sketch 40 (33762) - http://www.bohemiancoding.com/sketch -->
    <title>Group 3</title>
    <desc>Created with Sketch.</desc>
    <defs></defs>
    <g id="Screens" stroke="none" stroke-width="1" fill="none" fill-rule="evenodd">
        <g id="Home" transform="translate(-720.000000, -1152.000000)">
            <g id="Group-3" transform="translate(720.000000, 1152.000000)">
                <g id="Stars" transform="translate(48.000000, 138.000000)">
                    <path d="M593,62 L593,69" id="Stroke-1" stroke="#00ACC1" stroke-width="2" stroke-linecap="round"></path>
                    <path d="M590,66 L597,66" id="Stroke-3" stroke="#00ACC1" stroke-width="2" stroke-linecap="round"></path>
                    <path d="M114.3909,56.2032 C114.3909,58.4532 116.2149,60.2762 118.4639,60.2762 C120.7139,60.2762 122.5369,58.4532 122.5369,56.2032 C122.5369,53.9532 120.7139,52.1302 118.4639,52.1302 C116.2149,52.1302 114.3909,53.9532 114.3909,56.2032" id="Fill-5" fill="#F2F8EA"></path>
                    <path d="M114.3909,56.2032 C114.3909,58.4532 116.2149,60.2762 118.4639,60.2762 C120.7139,60.2762 122.5369,58.4532 122.5369,56.2032 C122.5369,53.9532 120.7139,52.1302 118.4639,52.1302 C116.2149,52.1302 114.3909,53.9532 114.3909,56.2032 L114.3909,56.2032 Z" id="Stroke-7" stroke="#679F42" stroke-width="2"></path>
                    <path d="M138.3909,207.2032 C138.3909,209.4532 140.2149,211.2762 142.4639,211.2762 C144.7139,211.2762 146.5369,209.4532 146.5369,207.2032 C146.5369,204.9532 144.7139,203.1302 142.4639,203.1302 C140.2149,203.1302 138.3909,204.9532 138.3909,207.2032" id="Fill-9" fill="#E0F8FA"></path>
                    <path d="M138.3909,207.2032 C138.3909,209.4532 140.2149,211.2762 142.4639,211.2762 C144.7139,211.2762 146.5369,209.4532 146.5369,207.2032 C146.5369,204.9532 144.7139,203.1302 142.4639,203.1302 C140.2149,203.1302 138.3909,204.9532 138.3909,207.2032 L138.3909,207.2032 Z" id="Stroke-11" stroke="#00ACC1" stroke-width="2"></path>
                    <path d="M4,137 L4,146" id="Stroke-13" stroke="#F9A825" stroke-width="2" stroke-linecap="round" stroke-linejoin="round"></path>
                    <path d="M0,142 L9,142" id="Stroke-15" stroke="#F9A825" stroke-width="2" stroke-linecap="round" stroke-linejoin="round"></path>
                    <path d="M539.228,2.614 C539.228,1.17 538.058,0 536.614,0 C535.17,0 534,1.17 534,2.614 C534,4.058 535.17,5.228 536.614,5.228 C538.058,5.228 539.228,4.058 539.228,2.614" id="Fill-21" fill="#00ACC1"></path>
                    <path d="M86.228,107.614 C86.228,106.17 85.058,105 83.614,105 C82.17,105 81,106.17 81,107.614 C81,109.058 82.17,110.228 83.614,110.228 C85.058,110.228 86.228,109.058 86.228,107.614" id="Fill-23" fill="#00ACC1"></path>
                    <path d="M504.3909,135.073 C504.3909,137.323 506.2149,139.146 508.4639,139.146 C510.7139,139.146 512.5369,137.323 512.5369,135.073 C512.5369,132.823 510.7139,131 508.4639,131 C506.2149,131 504.3909,132.823 504.3909,135.073" id="Fill-25" fill="#F2F8EA"></path>
                    <path d="M504.3909,135.2032 C504.3909,137.4532 506.2149,139.2762 508.4639,139.2762 C510.7139,139.2762 512.5369,137.4532 512.5369,135.2032 C512.5369,132.9532 510.7139,131.1302 508.4639,131.1302 C506.2149,131.1302 504.3909,132.9532 504.3909,135.2032 L504.3909,135.2032 Z" id="Stroke-27" stroke="#679F42" stroke-width="2"></path>
                </g>
                <g id="Fi_Icons_Billing-copy" transform="translate(231.000000, 116.000000)">
                    <g id="Group-5">
                        <path d="M15.8725,134.53125 C18.893,65.9785 76.91425,12.852 145.46875,15.8725 C214.0215,18.893 267.148,76.91425 264.1275,145.46875 C261.107,214.0215 203.08575,267.148 134.53125,264.1275 C65.9785,261.107 12.852,203.08575 15.8725,134.53125" id="Fill-3" fill="#F0EFEC"></path>
                        <path d="M219.177,61.026 L203.04725,28.34825 L118.3,0.812 C112.3255,-1.12875 105.90825,2.14025 103.9675,8.11475 L46.99975,183.4455 C45.05725,189.42 48.328,195.83725 54.3025,197.77975 L176.01325,237.32625 C181.98775,239.267 188.405,235.99625 190.34575,230.02175 L235.305,91.65625 L219.177,61.026" id="Fill-4" fill="#F4B400"></path>
                    </g>
                    <polyline id="Fill-6" fill="#D6D5D0" points="228.48175 112.6545 235.305 91.65625 235.27 91.5915 235.4275 91.65625 228.48175 112.6545"></polyline>
                    <polyline id="Fill-7" fill="#DFA400" points="228.47825 112.66325 192.0765 73.78525 235.27 91.5915 235.305 91.65625 228.48175 112.6545 228.47825 112.66325"></polyline>
                    <path d="M203.16975,28.34825 L191.52525,64.18475 C189.385,70.77525 193.0005,77.8715 199.58925,80.01175 L235.305,91.65625 L203.16975,28.34825" id="Fill-8" fill="#FFA000"></path>
                    <path d="M146.06725,89.33925 L108.21125,77.0385 C106.03775,76.33325 104.8495,73.99875 105.55475,71.8235 L105.6195,71.6275 C106.32475,69.45225 108.661,68.264 110.8345,68.96925 L148.68875,81.27 C150.864,81.97525 152.05225,84.3115 151.347,86.485 L151.28225,86.681 C150.577,88.85625 148.24075,90.04625 146.06725,89.33925" id="Fill-9" fill="#FFFFFF"></path>
                    <path d="M133.266,169.01325 L83.307,152.78025 C81.1335,152.07325 79.9435,149.73875 80.64875,147.56525 L80.7135,147.3675 C81.4205,145.194 83.755,144.004 85.9285,144.70925 L135.8875,160.944 C138.06275,161.64925 139.251,163.98375 138.54575,166.159 L138.481,166.355 C137.77575,168.5285 135.4395,169.7185 133.266,169.01325" id="Fill-10" fill="#FFFFFF"></path>
                    <path d="M174.91775,119.53025 L102.095,95.8685 C99.91975,95.1615 98.72975,92.827 99.43675,90.6535 L99.5015,90.45575 C100.20675,88.28225 102.543,87.09225 104.7165,87.79925 L177.53925,111.461 C179.71275,112.16625 180.90275,114.50075 180.1975,116.676 L180.13275,116.872 C179.42575,119.04725 177.09125,120.2355 174.91775,119.53025" id="Fill-11" fill="#FFFFFF"></path>
                    <path d="M191.6775,124.97625 L190.239,124.509 C188.4085,123.914 187.40575,121.947 188.00075,120.11475 L188.468,118.67625 C189.063,116.84575 191.03,115.843 192.8605,116.438 L194.299,116.90525 C196.1295,117.50025 197.13225,119.46725 196.53725,121.2995 L196.07,122.73625 C195.475,124.5685 193.508,125.57125 191.6775,124.97625" id="Fill-12" fill="#FFFFFF"></path>
                    <path d="M168.79975,138.3585 L95.977,114.69675 C93.80175,113.9915 92.6135,111.65525 93.31875,109.48175 L93.3835,109.284 C94.08875,107.1105 96.425,105.9205 98.5985,106.6275 L171.42125,130.28925 C173.59475,130.99625 174.78475,133.33075 174.0795,135.50425 L174.01475,135.702 C173.30775,137.8755 170.97325,139.0655 168.79975,138.3585" id="Fill-13" fill="#FFFFFF"></path>
                    <path d="M185.5595,143.8045 L184.121,143.33725 C182.2905,142.74225 181.28775,140.77525 181.88275,138.943 L182.35,137.50625 C182.945,135.674 184.912,134.673 186.7425,135.268 L188.181,135.73525 C190.0115,136.33025 191.01425,138.29725 190.41925,140.12775 L189.952,141.56625 C189.357,143.39675 187.39,144.3995 185.5595,143.8045" id="Fill-14" fill="#FFFFFF"></path>
                    <path d="M162.498,157.073 L89.67525,133.41125 C87.50175,132.706 86.31175,130.36975 87.01875,128.19625 L87.08175,127.9985 C87.78875,125.825 90.12325,124.635 92.29675,125.342 L165.12125,149.00375 C167.29475,149.71075 168.48475,152.04525 167.77775,154.21875 L167.71475,154.4165 C167.00775,156.59 164.67325,157.78 162.498,157.073" id="Fill-15" fill="#FFFFFF"></path>
                    <path d="M179.25775,162.519 L177.821,162.05175 C175.98875,161.45675 174.98775,159.48975 175.58275,157.6575 L176.05,156.22075 C176.645,154.3885 178.612,153.3875 180.4425,153.9825 L181.881,154.44975 C183.7115,155.04475 184.71425,157.01175 184.11925,158.84225 L183.652,160.28075 C183.057,162.11125 181.09,163.114 179.25775,162.519" id="Fill-16" fill="#FFFFFF"></path>
                </g>
            </g>
        </g>
    </g>
</svg>
