<?xml version="1.0" encoding="UTF-8" standalone="no"?>
<svg width="105px" height="40px" viewBox="0 0 105 40" version="1.1" xmlns="http://www.w3.org/2000/svg" xmlns:xlink="http://www.w3.org/1999/xlink">
    <!-- Generator: Sketch 40 (33762) - http://www.bohemiancoding.com/sketch -->
    <title>Group 12</title>
    <desc>Created with Sketch.</desc>
    <defs></defs>
    <g id="Screens" stroke="none" stroke-width="1" fill="none" fill-rule="evenodd">
        <g id="Plans" transform="translate(-24.000000, -16.000000)">
            <g id="Header" transform="translate(24.000000, 16.000000)">
                <g id="Group-9">
                    <g id="Group-12">
                        <g id="logo">
                            <g id="Group-5" transform="translate(5.704918, 0.108571)">
                                <path d="M21.1385279,1.8462381 C19.1289705,0.865285714 16.9706098,0.367666667 14.7228721,0.367666667 C6.64233115,0.367666667 0.0683639344,6.95242857 0.0683639344,15.0467143 L0.0683639344,38.7429048 C0.0683639344,39.1676667 0.416363934,39.511 0.845183607,39.511 L6.17452787,39.511 C6.60382295,39.511 6.95134754,39.1676667 6.95134754,38.7429048 L6.95134754,15.0467143 C6.95134754,10.7543333 10.4380033,7.26195238 14.7228721,7.26195238 C15.9166262,7.26195238 17.0604623,7.52528571 18.1220525,8.04385714 C19.8311508,8.87814286 21.8911016,8.16671429 22.7235443,6.45528571 C23.5564623,4.74385714 22.8466754,2.68052381 21.1385279,1.8462381" id="Fill-1" fill="#00A365"></path>
                                <path d="M19.6389902,24.5730476 C17.738777,24.5730476 16.1974984,26.1159048 16.1974984,28.0201905 L16.1974984,38.7325714 C16.1974984,39.1625714 16.5454984,39.5111429 16.9747934,39.5111429 L22.3036623,39.5111429 C22.732482,39.5111429 23.0809574,39.1625714 23.0809574,38.7325714 L23.0809574,28.0201905 C23.0809574,26.1159048 21.5401541,24.5730476 19.6389902,24.5730476" id="Fill-3" fill="#F0B21C"></path>
                            </g>
                            <polygon id="Fill-6" points="5.77337705 23.0142857 5.77337705 27.3395238 12.6563607 34.2338095 12.6563607 23.3466667 9.04895082 19.7333333"></polygon>
                            <path d="M25.4029541,23.6064286 L3.49987213,23.6064286 C1.59965902,23.6064286 0.0583803279,22.0635714 0.0583803279,20.1592857 C0.0583803279,18.2554762 1.59965902,16.7121429 3.49987213,16.7121429 L25.4029541,16.7121429 C27.3031672,16.7121429 28.8444459,18.2554762 28.8444459,20.1592857 C28.8444459,22.0635714 27.3031672,23.6064286 25.4029541,23.6064286" id="Fill-8" fill="#00B7D5"></path>
                            <path d="M27.6757459,20.1219048 C27.6757459,21.4119048 26.6317459,22.457619 25.3438607,22.457619 C24.0564508,22.457619 23.0124508,21.4119048 23.0124508,20.1219048 C23.0124508,18.832381 24.0564508,17.7866667 25.3438607,17.7866667 C26.6317459,17.7866667 27.6757459,18.832381 27.6757459,20.1219048 L27.6757459,20.1219048 Z" id="Fill-12" fill="#FEFEFE"></path>
                            <path d="M23.7124918,21.7904762 L25.522377,23.6033333 C27.3051639,23.5314286 28.7570656,22.1033333 28.8407377,20.3214286 L28.8407377,20.3214286 L27.009459,18.487619 L23.7124918,21.7904762 Z" id="Fill-10"></path>
                        </g>
                        <path d="M48.5771484,22.0078125 L48.5771484,26 L47.2304688,26 L47.2304688,16.046875 L51.0380859,16.046875 C52.0999402,16.046875 52.9248017,16.3203098 53.5126953,16.8671875 C54.1005889,17.4140652 54.3945312,18.1341101 54.3945312,19.0273438 C54.3945312,19.9342493 54.1005889,20.6577121 53.5126953,21.1977539 C52.9248017,21.7377957 52.0999402,22.0078125 51.0380859,22.0078125 L48.5771484,22.0078125 Z M48.5771484,20.9550781 L51.0380859,20.9550781 C51.7125685,20.9550781 52.2161442,20.7739276 52.5488281,20.4116211 C52.8815121,20.0493146 53.0478516,19.5924507 53.0478516,19.0410156 C53.0478516,18.4895806 52.8803728,18.0292987 52.5454102,17.6601562 C52.2104475,17.2910138 51.7080112,17.1064453 51.0380859,17.1064453 L48.5771484,17.1064453 L48.5771484,20.9550781 Z M59.4462891,19.7929688 L58.7558594,19.7519531 C58.4003888,19.7519531 58.1007499,19.8362622 57.8569336,20.0048828 C57.6131173,20.1735034 57.4251309,20.4104802 57.2929688,20.7158203 L57.2929688,26 L55.9462891,26 L55.9462891,18.6035156 L57.1494141,18.6035156 L57.2792969,19.6835938 C57.4889333,19.3007793 57.7475571,19.0022797 58.0551758,18.7880859 C58.3627945,18.5738922 58.7171204,18.4667969 59.1181641,18.4667969 C59.218425,18.4667969 59.3141271,18.4747721 59.4052734,18.4907227 C59.4964197,18.5066733 59.5716143,18.5237629 59.6308594,18.5419922 L59.4462891,19.7929688 Z M60.2939453,22.2333984 C60.2939453,21.139643 60.5901663,20.2384476 61.1826172,19.5297852 C61.7750681,18.8211228 62.579422,18.4667969 63.5957031,18.4667969 C64.6210989,18.4667969 65.4311494,18.8199834 66.0258789,19.5263672 C66.6206084,20.2327509 66.9179688,21.1350857 66.9179688,22.2333984 L66.9179688,22.3837891 C66.9179688,23.4866592 66.6217478,24.3889939 66.0292969,25.0908203 C65.436846,25.7926467 64.6302134,26.1435547 63.609375,26.1435547 C62.5885366,26.1435547 61.7807647,25.7915074 61.1860352,25.0874023 C60.5913056,24.3832973 60.2939453,23.4821018 60.2939453,22.3837891 L60.2939453,22.2333984 Z M61.640625,22.3837891 C61.640625,23.1676471 61.8058252,23.8147761 62.1362305,24.3251953 C62.4666358,24.8356145 62.957679,25.0908203 63.609375,25.0908203 C64.2519563,25.0908203 64.7395817,24.8356145 65.0722656,24.3251953 C65.4049496,23.8147761 65.5712891,23.1676471 65.5712891,22.3837891 L65.5712891,22.2333984 C65.5712891,21.458655 65.4038103,20.8138047 65.0688477,20.2988281 C64.733885,19.7838516 64.2428418,19.5263672 63.5957031,19.5263672 C62.9531218,19.5263672 62.4666358,19.7838516 62.1362305,20.2988281 C61.8058252,20.8138047 61.640625,21.458655 61.640625,22.2333984 L61.640625,22.3837891 Z M70.1171875,18.6035156 L70.1171875,26.6083984 C70.1171875,27.36947 69.9212259,27.9562154 69.5292969,28.3686523 C69.1373678,28.7810893 68.5927769,28.9873047 67.8955078,28.9873047 C67.7542311,28.9873047 67.6254889,28.9770509 67.5092773,28.956543 C67.3930658,28.9360351 67.2688809,28.9052736 67.1367188,28.8642578 L67.2324219,27.8046875 C67.2962243,27.8274741 67.3873692,27.8468424 67.5058594,27.862793 C67.6243496,27.8787436 67.7223303,27.8867188 67.7998047,27.8867188 C68.0960301,27.8867188 68.3318676,27.7864593 68.5073242,27.5859375 C68.6827808,27.3854157 68.7705078,27.0595726 68.7705078,26.6083984 L68.7705078,18.6035156 L70.1171875,18.6035156 Z M70.0761719,16.6826172 L68.7294922,16.6826172 L68.7294922,15.3359375 L70.0761719,15.3359375 L70.0761719,16.6826172 Z M75.2578125,26.1435547 C74.2278594,26.1435547 73.4086944,25.8006219 72.800293,25.1147461 C72.1918915,24.4288703 71.8876953,23.539068 71.8876953,22.4453125 L71.8876953,22.1445312 C71.8876953,21.0917916 72.201006,20.215661 72.8276367,19.5161133 C73.4542675,18.8165655 74.1959593,18.4667969 75.0527344,18.4667969 C76.0507862,18.4667969 76.8050105,18.7675751 77.3154297,19.3691406 C77.8258489,19.9707061 78.0810547,20.7727814 78.0810547,21.7753906 L78.0810547,22.6162109 L73.2822266,22.6162109 L73.2617188,22.6503906 C73.2753907,23.3613317 73.4554019,23.9457985 73.8017578,24.4038086 C74.1481137,24.8618187 74.6334604,25.0908203 75.2578125,25.0908203 C75.7135439,25.0908203 76.1134423,25.0258796 76.4575195,24.8959961 C76.8015968,24.7661126 77.0989571,24.5872407 77.3496094,24.359375 L77.8759766,25.234375 C77.6116523,25.4941419 77.263023,25.7106111 76.8300781,25.8837891 C76.3971333,26.056967 75.87305,26.1435547 75.2578125,26.1435547 L75.2578125,26.1435547 Z M75.0527344,19.5263672 C74.6015602,19.5263672 74.2164729,19.7166322 73.8974609,20.097168 C73.5784489,20.4777037 73.3824873,20.9550753 73.3095703,21.5292969 L73.3232422,21.5634766 L76.734375,21.5634766 L76.734375,21.3857422 C76.734375,20.8570937 76.5931004,20.4150408 76.3105469,20.0595703 C76.0279934,19.7040998 75.6087267,19.5263672 75.0527344,19.5263672 L75.0527344,19.5263672 Z M82.5996094,25.0908203 C83.0462262,25.0908203 83.4392887,24.9529636 83.7788086,24.6772461 C84.1183285,24.4015286 84.2880859,24.063153 84.2880859,23.6621094 L85.4980469,23.6621094 L85.5117188,23.703125 C85.5345053,24.341149 85.2508168,24.9073869 84.6606445,25.4018555 C84.0704723,25.8963241 83.3834675,26.1435547 82.5996094,26.1435547 C81.5240832,26.1435547 80.7015002,25.7926467 80.1318359,25.0908203 C79.5621716,24.3889939 79.2773438,23.5071668 79.2773438,22.4453125 L79.2773438,22.1582031 C79.2773438,21.1054635 79.5633109,20.2270543 80.1352539,19.5229492 C80.7071969,18.8188441 81.5286405,18.4667969 82.5996094,18.4667969 C83.4654991,18.4667969 84.1730116,18.7220027 84.722168,19.2324219 C85.2713244,19.7428411 85.5367839,20.3694624 85.5185547,21.1123047 L85.5048828,21.1533203 L84.2880859,21.1533203 C84.2880859,20.7021462 84.1285823,20.3181982 83.8095703,20.0014648 C83.4905583,19.6847315 83.087242,19.5263672 82.5996094,19.5263672 C81.8932256,19.5263672 81.3885106,19.7804337 81.0854492,20.2885742 C80.7823878,20.7967148 80.6308594,21.4199182 80.6308594,22.1582031 L80.6308594,22.4453125 C80.6308594,23.2018267 80.7812485,23.831866 81.0820312,24.3354492 C81.382814,24.8390325 81.8886683,25.0908203 82.5996094,25.0908203 L82.5996094,25.0908203 Z M88.7998047,16.8193359 L88.7998047,18.6035156 L90.2011719,18.6035156 L90.2011719,19.6015625 L88.7998047,19.6015625 L88.7998047,24.0927734 C88.7998047,24.4391293 88.8715813,24.682942 89.0151367,24.8242188 C89.1586921,24.9654955 89.3489571,25.0361328 89.5859375,25.0361328 C89.6634118,25.0361328 89.7488602,25.0270183 89.8422852,25.0087891 C89.9357101,24.9905598 90.0188798,24.9677736 90.0917969,24.9404297 L90.2695312,25.8632812 C90.1692703,25.9453129 90.0222991,26.0125323 89.8286133,26.0649414 C89.6349274,26.1173505 89.4401051,26.1435547 89.2441406,26.1435547 C88.6972629,26.1435547 88.2620459,25.9783545 87.9384766,25.6479492 C87.6149072,25.3175439 87.453125,24.7991572 87.453125,24.0927734 L87.453125,19.6015625 L86.2773438,19.6015625 L86.2773438,18.6035156 L87.453125,18.6035156 L87.453125,16.8193359 L88.7998047,16.8193359 Z M101.480469,21.5976562 L96.9414062,21.5976562 L96.9414062,26 L95.5947266,26 L95.5947266,16.046875 L102.177734,16.046875 L102.177734,17.1064453 L96.9414062,17.1064453 L96.9414062,20.5380859 L101.480469,20.5380859 L101.480469,21.5976562 Z M104.953125,26 L103.606445,26 L103.606445,18.6035156 L104.953125,18.6035156 L104.953125,26 Z M104.953125,16.7099609 L103.606445,16.7099609 L103.606445,15.3359375 L104.953125,15.3359375 L104.953125,16.7099609 Z" id="Project-Fi" fill-opacity="0.54" fill="#000000"></path>
                    </g>
                </g>
            </g>
        </g>
    </g>
</svg>