<?xml version="1.0" encoding="UTF-8" standalone="no"?>
<svg width="1440px" height="580px" viewBox="0 0 1440 580" version="1.1" xmlns="http://www.w3.org/2000/svg" xmlns:xlink="http://www.w3.org/1999/xlink">
    <!-- Generator: Sketch 40 (33762) - http://www.bohemiancoding.com/sketch -->
    <title>home</title>
    <desc>Created with Sketch.</desc>
    <defs>
        <polygon id="path-1" points="0.161667743 9.26415259 16.7779539 7.54799944 16.7779539 0.0984458527 0.161667743 0.0984458527 0.161667743 9.26415259"></polygon>
        <polygon id="path-3" points="1.01559337e-15 10.2641526 19 8.34233049 19 0 0 0 0 10.2641526"></polygon>
        <polygon id="path-5" points="0.992121408 6.9718194 11.9476783 5.84031424 11.9476783 0.929584117 0.992121408 0.929584117 0.992121408 6.9718194"></polygon>
        <polygon id="path-7" points="0 6.9718194 13 5.66623475 13 0 1.05392355e-15 0 0 6.9718194"></polygon>
        <polygon id="path-9" points="0.750716268 3.68690789 6.18781765 3.12535649 6.18781765 0.687759476 0.750716268 0.687759476 0.750716268 3.68690789"></polygon>
        <polygon id="path-11" points="1.30684106e-15 3.68690789 8 2.99658251 8 0 0 0 3.92052319e-15 3.68690789"></polygon>
    </defs>
    <g id="Hero" stroke="none" stroke-width="1" fill="none" fill-rule="evenodd">
        <g id="home">
            <g id="Landscape" transform="translate(-199.000000, 322.000000)">
                <g id="City" transform="translate(532.000000, 54.000000)" fill="#F6F6F6">
                    <polygon id="Fill-1" points="10 230.981722 77.7170936 230.981722 77.7170936 168 10 168"></polygon>
                    <polygon id="Fill-2" points="0 177.06243 83.8992596 177.06243 83.8992596 168 0 168"></polygon>
                    <polygon id="Fill-3" points="22 149.06243 126.35308 149.06243 126.35308 140 22 140"></polygon>
                    <polygon id="Fill-4" points="676 234.099267 763.879992 234.099267 763.879992 161 676 161"></polygon>
                    <polygon id="Fill-5" points="667 170.06243 772.669429 170.06243 772.669429 161 667 161"></polygon>
                    <polygon id="Fill-6" points="30 220.22202 119.762342 220.22202 119.762342 140 30 140"></polygon>
                    <polygon id="Fill-7" points="647 218.591929 736.033598 218.591929 736.033598 131 647 131"></polygon>
                    <polygon id="Fill-8" points="44 154.125819 79.6724875 154.125819 79.6724875 131 44 131"></polygon>
                    <polygon id="Fill-9" points="98 145.779123 146.291581 145.779123 146.291581 122 98 122"></polygon>
                    <polygon id="Fill-10" points="295 186.785177 454.826973 186.785177 454.826973 56 295 56"></polygon>
                    <polygon id="Fill-11" points="262 167.785177 315.921351 167.785177 315.921351 37 262 37"></polygon>
                    <polygon id="Fill-12" points="518.765458 225.785177 604.353966 225.785177 604.353966 93 518.765458 93"></polygon>
                    <polygon id="Fill-13" points="518 94.4219424 611.321094 94.4219424 611.321094 87 518 87"></polygon>
                    <polygon id="Fill-14" points="404 74.4219424 497.321094 74.4219424 497.321094 67 404 67"></polygon>
                    <polygon id="Fill-15" points="286 63.4219424 379.321094 63.4219424 379.321094 56 286 56"></polygon>
                    <polygon id="Fill-16" points="411 198.785177 490.353966 198.785177 490.353966 68 411 68"></polygon>
                    <polygon id="Fill-17" points="246 203.402051 298 203.402051 298 66 246 66"></polygon>
                    <polygon id="Fill-18" points="184 235.006669 266.574269 235.006669 266.574269 72 184 72"></polygon>
                    <polygon id="Fill-19" points="120 60.9496918 199.123533 60.9496918 199.123533 52 120 52"></polygon>
                    <polygon id="Fill-20" points="100 107.949692 198.394943 107.949692 198.394943 99 100 99"></polygon>
                    <polygon id="Fill-21" points="153 229.109258 189.767045 229.109258 189.767045 36 153 36"></polygon>
                    <polygon id="Fill-22" points="534 171.88957 567.588508 171.88957 567.588508 77 534 77"></polygon>
                    <polygon id="Fill-23" points="466 174.88957 519.472006 174.88957 519.472006 80 466 80"></polygon>
                    <polygon id="Fill-24" points="592 206.88957 645.472006 206.88957 645.472006 112 592 112"></polygon>
                    <polygon id="Fill-25" points="399 135.88957 432.588508 135.88957 432.588508 41 399 41"></polygon>
                    <polygon id="Fill-26" points="129 224.671816 232.437108 224.671816 232.437108 52 129 52"></polygon>
                    <polygon id="Fill-27" points="108 228.637366 191.532007 228.637366 191.532007 100 108 100"></polygon>
                    <polygon id="Fill-28" points="628 190.90721 709.95498 190.90721 709.95498 102 628 102"></polygon>
                    <polygon id="Fill-29" points="651 109.56723 674.468173 109.56723 674.468173 83 651 83"></polygon>
                    <polygon id="Fill-30" points="651 118.83443 654.227504 118.83443 654.227504 93 651 93"></polygon>
                    <polygon id="Fill-31" points="671 118.83443 674.227504 118.83443 674.227504 93 671 93"></polygon>
                    <polyline id="Fill-32" points="651 83.4599052 662.733367 74 674.468173 83.4599052"></polyline>
                    <polygon id="Fill-33" points="289.802895 0 273 42.3982978 304.204965 41.4342402"></polygon>
                </g>
                <g id="Group" transform="translate(532.000000, 0.000000)">
                    <rect id="Rectangle-path" stroke="#00ACC1" stroke-width="1.5" fill="#FFFFFF" x="47.6" y="93.050457" width="10" height="123.525411"></rect>
                    <path d="M15.4,43.7605119 C15.4,39.7531993 17.9,38.2003656 20.95,38.2003656 C24,38.2003656 26.5,39.7531993 26.5,43.7605119 L15.4,43.7605119 L15.4,43.7605119 Z" id="Shape" stroke="#00ACC1" stroke-width="1.5" fill="#F5F5F5"></path>
                    <path d="M20.75,43.5100548 L20.75,49.0201097" id="Shape" stroke="#00ACC1" stroke-width="1.5" fill="#FFFFFF"></path>
                    <path d="M37.7,43.7605119 C37.7,39.7531993 40.15,38.2003656 43.25,38.2003656 C46.3,38.2003656 48.8,39.7531993 48.8,43.7605119 L37.7,43.7605119 L37.7,43.7605119 Z" id="Shape" stroke="#00ACC1" stroke-width="1.5" fill="#F5F5F5"></path>
                    <path d="M42.75,43.5100548 L42.75,49.0201097" id="Shape" stroke="#00ACC1" stroke-width="1.5" fill="#FFFFFF"></path>
                    <polygon id="Rectangle-path" stroke="#00ACC1" stroke-width="1.5" fill="#FFFFFF" points="5.6 48.569287 95.85 48.569287 95.85 93.050457 5.6 93.050457"></polygon>
                    <polygon id="Shape" fill="#9E9E9E" opacity="0.2" points="48.65 107.02596 56.55 112.38574 56.55 98.7608775 48.65 98.7608775"></polygon>
                    <ellipse id="Oval" fill="#00ACC1" cx="22.45" cy="70.809872" rx="1.75" ry="1.75319927"></ellipse>
                    <polyline id="Shape" stroke="#00ACC1" stroke-width="1.5" points="48.6 70.5093236 48.4 70.5093236 28.6 70.5093236"></polyline>
                    <rect id="Rectangle-path" stroke="#00ACC1" stroke-width="1.5" fill="#F5F5F5" x="0.2" y="93.050457" width="101.05" height="4.75868373"></rect>
                    <g transform="translate(58.550000, 29.000000)">
                        <path d="M2.51428571,53.807867 L25.1428571,53.8369523 C26.4,53.8369523 27.4285714,52.7898803 27.4285714,51.5101256 L27.4857143,2.47225335 C27.4857143,1.19249867 26.4571429,0.145426667 25.2,0.145426667 L2.57142857,0.116341334 C1.31428571,0.116341334 0.285714286,1.16341334 0.285714286,2.44316801 L0.228571429,51.4810403 C0.228571429,52.7898803 1.25714286,53.807867 2.51428571,53.807867 L2.51428571,53.807867 Z" id="Shape" stroke="#F9A825" stroke-width="1.5" fill="#FFF8E1"></path>
                        <rect id="Rectangle-path" stroke="#F9A825" stroke-width="1.50000063" fill="#FFFFFF" transform="translate(13.861362, 26.887107) rotate(180.052601) translate(-13.861362, -26.887107) " x="3.33278653" y="7.60352255" width="21.0571517" height="38.5671685"></rect>
                        <ellipse id="Oval" fill="#F9A825" cx="9.71428571" cy="3.92652002" rx="0.828571429" ry="0.843474671"></ellipse>
                        <path d="M12.8,4.07194669 L17.9428571,4.07194669" id="Shape" stroke="#F9A825" stroke-width="1.5"></path>
                    </g>
                    <g id="Group-10" transform="translate(72.500000, 2.000000) rotate(90.000000) translate(-72.500000, -2.000000) translate(63.000000, -13.000000)" stroke-width="1.5" stroke="#F9A825">
                        <g id="Group-3">
                            <path d="M8.28826531,0.496753247 C7.62908163,-0.165584416 6.62091837,-0.165584416 5.96173469,0.496753247 C-1.9872449,8.48376623 -1.9872449,21.4577922 5.96173469,29.4448052 C6.62091837,30.1071429 7.62908163,30.1071429 8.28826531,29.4448052 C8.94744898,28.7824675 8.94744898,27.7694805 8.28826531,27.1071429 C1.61887755,20.4058442 1.61887755,9.53571429 8.28826531,2.83441558 C8.90867347,2.17207792 8.90867347,1.12012987 8.28826531,0.496753247 L8.28826531,0.496753247 Z" id="Shape"></path>
                            <path d="M13.1352041,5.40584416 C12.4760204,4.74350649 11.4678571,4.74350649 10.8086735,5.40584416 C5.57397959,10.6655844 5.53520408,19.275974 10.8086735,24.5357143 C11.4678571,25.1980519 12.4760204,25.1980519 13.1352041,24.5357143 C13.7943878,23.8733766 13.7943878,22.8603896 13.1352041,22.1980519 C9.18010204,18.224026 9.18010204,11.7175325 13.1352041,7.74350649 C13.7943878,7.08116883 13.7943878,6.02922078 13.1352041,5.40584416 L13.1352041,5.40584416 Z" id="Shape"></path>
                            <path d="M18.1372449,10.3928571 C17.4780612,9.73051948 16.469898,9.73051948 15.8107143,10.3928571 C13.2903061,12.9253247 13.2903061,17.0162338 15.8107143,19.5097403 C16.469898,20.1720779 17.4780612,20.1720779 18.1372449,19.5097403 C18.7964286,18.8474026 18.7964286,17.8344156 18.1372449,17.1720779 C16.9352041,15.9642857 16.9352041,13.9383117 18.1372449,12.7305195 C18.7964286,12.1071429 18.7964286,11.0551948 18.1372449,10.3928571 L18.1372449,10.3928571 Z" id="Shape"></path>
                        </g>
                    </g>
                </g>
                <circle id="Oval-2" stroke="#4AC3D2" stroke-width="1.5" fill="#FAFAFA" cx="918.5" cy="1066.5" r="918.5"></circle>
            </g>
            <g id="Group-5" transform="translate(1047.000000, 366.000000)" stroke="#00ACC1" stroke-width="1.5">
                <path d="M38.6,10.8402194 C40.55,4.77915905 46.25,0.371115174 53,0.371115174 C61.35,0.371115174 68.1,7.13345521 68.1,15.4987203" id="Shape"></path>
                <path d="M38.6,10.7400366 C40.55,4.67897623 46.25,0.270932358 53,0.270932358 C61.35,0.270932358 68.1,7.03327239 68.1,15.3985375" id="Shape"></path>
                <path d="M67.45,10.5897623 C68.4,9.93857404 69.55,9.53784278 70.8,9.53784278 C74,9.53784278 76.65,12.142596 76.65,15.3985375 L83.9,15.3985375" id="Shape"></path>
                <path d="M39.15,19.1053016 C40,18.1034735 40.5,16.8010969 40.5,15.3985375 C40.5,12.1926874 37.9,9.63802559 34.75,9.63802559 C31.55,9.63802559 29,12.2427788 29,15.3985375 L28.85,15.3985375 L15.15,15.3985375" id="Shape"></path>
                <path d="M26.5,20.9085923 L0,20.9085923" id="Shape"></path>
            </g>
            <g id="Group-7" transform="translate(1264.000000, 293.000000)">
                <path d="M23.5,10.742596 C25.45,4.68153565 31.15,0.273491773 37.9,0.273491773 C46.25,0.273491773 53,7.03583181 53,15.4010969" id="Shape" stroke="#00ACC1" stroke-width="1.5"></path>
                <path d="M23.5,10.6424132 C25.45,4.58135283 31.15,0.173308958 37.9,0.173308958 C46.25,0.173308958 53,6.93564899 53,15.3009141" id="Shape" stroke="#00ACC1" stroke-width="1.5"></path>
                <ellipse id="Oval" fill="#00ACC1" cx="76.35" cy="20.5104205" rx="1.2" ry="1.20219378"></ellipse>
                <path d="M24,19.0076782 C24.85,18.0058501 25.35,16.7034735 25.35,15.3009141 C25.35,12.095064 22.75,9.54040219 19.6,9.54040219 C16.45,9.54040219 13.85,12.1451554 13.85,15.3009141 L13.7,15.3009141 L0,15.3009141" id="Shape" stroke="#00ACC1" stroke-width="1.5"></path>
                <path d="M62,15.8519196 L48,15.8519196" id="Shape" stroke="#00ACC1" stroke-width="1.5"></path>
                <path d="M72.5,20.8610603 L54.5,20.8610603" id="Shape" stroke="#00ACC1" stroke-width="1.5"></path>
            </g>
            <g id="Group-7" transform="translate(97.000000, 163.000000)">
                <path d="M23.5,10.742596 C25.45,4.68153565 31.15,0.273491773 37.9,0.273491773 C46.25,0.273491773 53,7.03583181 53,15.4010969" id="Shape" stroke="#00ACC1" stroke-width="1.5"></path>
                <path d="M23.5,10.6424132 C25.45,4.58135283 31.15,0.173308958 37.9,0.173308958 C46.25,0.173308958 53,6.93564899 53,15.3009141" id="Shape" stroke="#00ACC1" stroke-width="1.5"></path>
                <ellipse id="Oval" fill="#00ACC1" cx="76.35" cy="20.5104205" rx="1.2" ry="1.20219378"></ellipse>
                <path d="M24,19.0076782 C24.85,18.0058501 25.35,16.7034735 25.35,15.3009141 C25.35,12.095064 22.75,9.54040219 19.6,9.54040219 C16.45,9.54040219 13.85,12.1451554 13.85,15.3009141 L13.7,15.3009141 L0,15.3009141" id="Shape" stroke="#00ACC1" stroke-width="1.5"></path>
                <path d="M62,15.8519196 L48,15.8519196" id="Shape" stroke="#00ACC1" stroke-width="1.5"></path>
                <path d="M72.5,20.8610603 L54.5,20.8610603" id="Shape" stroke="#00ACC1" stroke-width="1.5"></path>
            </g>
            <g id="Group-6" transform="translate(209.000000, 285.000000)">
                <g id="Group">
                    <path d="M29.2,10.9700183 C31.15,4.90895795 36.85,0.500914077 43.6,0.500914077 C51.95,0.500914077 58.7,7.26325411 58.7,15.6285192" id="Shape" stroke="#00ACC1" stroke-width="1.5"></path>
                    <path d="M29.2,10.8197441 C31.15,4.75868373 36.85,0.350639854 43.6,0.350639854 C51.95,0.350639854 58.7,7.11297989 58.7,15.478245" id="Shape" stroke="#00ACC1" stroke-width="1.5"></path>
                    <path d="M58.05,10.7195612 C59,10.0683729 60.15,9.66764168 61.4,9.66764168 C64.6,9.66764168 67.25,12.2723949 67.25,15.5283364 L74.5,15.5283364" id="Shape" stroke="#00ACC1" stroke-width="1.5"></path>
                    <ellipse id="Oval" fill="#00ACC1" cx="1.45" cy="15.6786106" rx="1.2" ry="1.20219378"></ellipse>
                    <path d="M29.75,19.1850091 C30.6,18.183181 31.1,16.8808044 31.1,15.478245 C31.1,12.2723949 28.5,9.71773309 25.35,9.71773309 C22.15,9.71773309 19.6,12.3224863 19.6,15.478245 L19.45,15.478245 L5.75,15.478245" id="Shape" stroke="#00ACC1" stroke-width="1.5"></path>
                </g>
            </g>
            <g id="Group-12" transform="translate(855.000000, 520.000000)" stroke="#00ACC1" stroke-width="1.5" fill="#FFFFFF">
                <ellipse id="Oval" cx="5.5" cy="1.80329068" rx="1.8" ry="1.80329068"></ellipse>
                <g id="Group" transform="translate(2.650000, 5.610238)">
                    <path d="M5.25,2.80511883 C5.25,1.40255941 4.15,0.250457038 2.75,0.250457038 C1.35,0.250457038 0.25,1.35246801 0.25,2.75502742 L0.25,7.8142596 L5.25,7.8142596 L5.25,2.80511883 L5.25,2.80511883 Z" id="Shape"></path>
                    <path d="M0.25,8.01462523 L0.25,12.0219378" id="Shape"></path>
                    <path d="M5.25,8.01462523 L5.25,12.0219378" id="Shape"></path>
                </g>
                <path d="M7.65,8.36526508 L13.15,8.36526508" id="Shape"></path>
                <path d="M2.9,8.31517367 C2.9,8.31517367 0,8.66581353 0,13.3744059" id="Shape"></path>
            </g>
            <g id="Group-15" transform="translate(625.000000, 397.000000)">
                <rect id="Rectangle-path" fill="#F5F5F5" x="172.6" y="35.911883" width="15.3" height="15.2778793"></rect>
                <rect id="Rectangle-path" stroke="#00ACC1" stroke-width="1.5" fill="#FFFFFF" x="0" y="97.4241316" width="58.85" height="10.0683729"></rect>
                <rect id="Rectangle-path" stroke="#00ACC1" stroke-width="1.5" fill="#FAFAFA" x="2.75" y="38.0658135" width="56.1" height="59.3583181"></rect>
                <rect id="Rectangle-path" stroke="#00ACC1" stroke-width="1.5" fill="#FFFFFF" x="0" y="31.7042048" width="58.85" height="6.36160878"></rect>
                <path d="M7.5,61.6087751 L3,61.6087751" id="Shape" stroke="#00ACC1" stroke-width="1.5" fill="#FAFAFA"></path>
                <path d="M12,71.6270567 L7.5,71.6270567" id="Shape" stroke="#00ACC1" stroke-width="1.5" fill="#FAFAFA"></path>
                <rect id="Rectangle-path" stroke="#00ACC1" stroke-width="1.5" fill="#FFFFFF" x="26.25" y="75.6343693" width="10.7" height="14.8771481"></rect>
                <polygon id="Shape" stroke="#00ACC1" stroke-width="1.5" fill="#FFFFFF" points="24.6 76.3857404 38.65 76.3857404 31.8 70.5250457"></polygon>
                <rect id="Rectangle-path" stroke="#00ACC1" stroke-width="1.5" fill="#FFFFFF" x="26.25" y="50.2380256" width="10.7" height="8.76599634"></rect>
                <rect id="Rectangle-path" stroke="#00ACC1" stroke-width="1.5" fill="#EEEEEE" x="24.25" y="46.9319927" width="14.75" height="3.30603291"></rect>
                <rect id="Rectangle-path" fill="#9E9E9E" opacity="0.15" x="27" y="50.9893967" width="9.2" height="3.30603291"></rect>
                <rect id="Rectangle-path" fill="#9E9E9E" opacity="0.15" x="27" y="77.0870201" width="9.2" height="3.30603291"></rect>
                <rect id="Rectangle-path" stroke="#00ACC1" stroke-width="1.5" fill="#FFFFFF" x="130.5" y="97.4241316" width="58.85" height="10.0683729"></rect>
                <rect id="Rectangle-path" stroke="#00ACC1" stroke-width="1.5" fill="#FAFAFA" x="130.5" y="38.0658135" width="56.1" height="59.3583181"></rect>
                <rect id="Rectangle-path" stroke="#00ACC1" stroke-width="1.5" fill="#F5F5F5" x="58.5" y="38.3162706" width="72.5" height="61.8628885"></rect>
                <rect id="Rectangle-path" stroke="#00ACC1" stroke-width="1.5" fill="#FFFFFF" x="130.5" y="31.7042048" width="58.85" height="6.36160878"></rect>
                <rect id="Rectangle-path" stroke="#00ACC1" stroke-width="1.5" fill="#FFFFFF" x="53.3" y="39.6186472" width="81.6" height="3.20585009"></rect>
                <rect id="Rectangle-path" stroke="#00ACC1" stroke-width="1.5" fill="#FFFFFF" x="53.3" y="100.078976" width="81.6" height="3.9071298"></rect>
                <rect id="Rectangle-path" stroke="#00ACC1" stroke-width="1.5" fill="#FFFFFF" x="50.2" y="103.986106" width="87.8" height="3.50639854"></rect>
                <rect id="Rectangle-path" stroke="#00ACC1" stroke-width="1.5" fill="#FFFFFF" x="46.35" y="107.69287" width="95.55" height="3.50639854"></rect>
                <rect id="Rectangle-path" stroke="#00ACC1" stroke-width="1.5" fill="#FAFAFA" x="53.3" y="28.047532" width="81.6" height="11.5711152"></rect>
                <path d="M182,84.6508227 L186.5,84.6508227" id="Shape" stroke="#00ACC1" stroke-width="1.5" fill="#FAFAFA"></path>
                <path d="M131,61.6087751 L135.5,61.6087751" id="Shape" stroke="#00ACC1" stroke-width="1.5" fill="#FAFAFA"></path>
                <path d="M86.25,99.678245 L86.25,84.4003656 C86.25,80.0424132 89.9,76.4859232 94.25,76.4859232 C98.6,76.4859232 102.25,80.0424132 102.25,84.4003656 L102.25,99.678245 L86.25,99.678245 L86.25,99.678245 Z" id="Shape" stroke="#00ACC1" stroke-width="1.5" fill="#EEEEEE"></path>
                <rect id="Rectangle-path" stroke="#00ACC1" stroke-width="1.5" fill="#FFFFFF" x="152.4" y="75.6343693" width="10.7" height="14.8771481"></rect>
                <polygon id="Shape" stroke="#00ACC1" stroke-width="1.5" fill="#FFFFFF" points="164.8 76.3857404 150.75 76.3857404 157.55 70.5250457"></polygon>
                <rect id="Rectangle-path" stroke="#00ACC1" stroke-width="1.5" fill="#FFFFFF" x="152.4" y="50.2380256" width="10.7" height="8.76599634"></rect>
                <rect id="Rectangle-path" stroke="#00ACC1" stroke-width="1.5" fill="#E0E0E0" x="152.4" y="103.334918" width="10.7" height="4.10749543"></rect>
                <rect id="Rectangle-path" stroke="#00ACC1" stroke-width="1.5" fill="#EEEEEE" x="150.4" y="46.9319927" width="14.75" height="3.30603291"></rect>
                <rect id="Rectangle-path" fill="#9E9E9E" opacity="0.15" x="153.15" y="50.9893967" width="9.2" height="3.30603291"></rect>
                <rect id="Rectangle-path" fill="#DBDBDB" opacity="0.5" x="59.25" y="43.5758684" width="70.95" height="5.30968921"></rect>
                <rect id="Rectangle-path" fill="#9E9E9E" opacity="0.15" x="153.15" y="77.0870201" width="9.2" height="3.30603291"></rect>
                <g id="Group" transform="translate(109.500000, 42.824497)" stroke="#00ACC1" stroke-width="1.5" fill="#FFFFFF">
                    <rect id="Rectangle-path" x="1.8" y="0.0500914077" width="8.35" height="49.3400366"></rect>
                    <rect id="Rectangle-path" x="0" y="47.6369287" width="11.45" height="9.41718464"></rect>
                    <rect id="Rectangle-path" x="0.5" y="0.150274223" width="10.95" height="3.95722121"></rect>
                </g>
                <g id="Group" transform="translate(68.000000, 42.824497)" stroke="#00ACC1" stroke-width="1.5" fill="#FFFFFF">
                    <rect id="Rectangle-path" x="1.9" y="0.150274223" width="8.35" height="49.3400366"></rect>
                    <rect id="Rectangle-path" x="0.1" y="47.7371115" width="11.45" height="9.41718464"></rect>
                    <rect id="Rectangle-path" x="0.6" y="0.250457038" width="10.95" height="3.95722121"></rect>
                </g>
                <polygon id="Shape" stroke="#00ACC1" stroke-width="1.5" fill="#FFFFFF" points="130.4 27.9491773 58.1 27.9491773 94.75 12.1521024"></polygon>
                <g id="Group" transform="translate(81.000000, 7.347349)">
                    <g id="Shape">
                        <path d="M1.1,17.7824497 L1.1,15.728702 C1.1,12.0219378 2.7,8.66581353 5.5,6.26142596 L3.3,4.05740402 C2.65,3.40621572 2.65,2.30420475 3.3,1.60292505 C3.65,1.25228519 4.05,1.10201097 4.5,1.10201097 C4.95,1.10201097 5.4,1.3023766 5.7,1.60292505 L8.5,4.40804388 C10.1,3.65667276 11.8,3.30603291 13.5,3.30603291 C15.2,3.30603291 16.9,3.65667276 18.5,4.40804388 L21.3,1.60292505 C21.6,1.3023766 22.05,1.10201097 22.5,1.10201097 C22.95,1.10201097 23.4,1.3023766 23.7,1.60292505 C24.35,2.25411335 24.35,3.35612431 23.7,4.05740402 L21.5,6.26142596 C24.3,8.61572212 25.9,12.0219378 25.9,15.728702 L25.9,17.7824497 L1.1,17.7824497 L1.1,17.7824497 Z" fill="#FFFFFF"></path>
                        <path d="M4.55,1.85338208 C4.8,1.85338208 5.05,1.9535649 5.25,2.15393053 L8.4,5.30968921 C9.95,4.5583181 11.7,4.05740402 13.55,4.05740402 L13.55,4.05740402 C15.4,4.05740402 17.15,4.5583181 18.7,5.30968921 L21.85,2.15393053 C22.05,1.9535649 22.3,1.85338208 22.55,1.85338208 C22.8,1.85338208 23.05,1.9535649 23.25,2.15393053 C23.65,2.55466179 23.65,3.15575868 23.25,3.50639854 L20.45,6.31151737 C23.35,8.41535649 25.25,11.8215722 25.25,15.728702 L25.25,17.0310786 L1.95,17.0310786 L1.95,15.728702 C1.95,11.8716636 3.85,8.4654479 6.75,6.36160878 L3.95,3.55648995 C3.55,3.15575868 3.55,2.55466179 3.95,2.20402194 C4.05,1.9535649 4.3,1.85338208 4.55,1.85338208 L4.55,1.85338208 Z M4.55,0.350639854 L4.55,1.85338208 L4.55,0.350639854 C3.9,0.350639854 3.25,0.601096892 2.8,1.05191956 C1.85,2.00365631 1.85,3.60658135 2.8,4.5583181 L4.45,6.21133455 C1.85,8.66581353 0.4,12.0720293 0.35,15.6786106 L0.35,16.9809872 L0.35,18.4837294 L1.85,18.4837294 L25.15,18.4837294 L26.65,18.4837294 L26.65,16.9809872 L26.65,15.6786106 C26.65,12.0219378 25.2,8.66581353 22.6,6.16124314 L24.25,4.50822669 C25.2,3.55648995 25.2,1.9535649 24.25,1.00182815 C23.8,0.551005484 23.15,0.300548446 22.5,0.300548446 C21.85,0.300548446 21.2,0.551005484 20.75,1.00182815 L18.35,3.40621572 C16.8,2.75502742 15.15,2.45447898 13.55,2.45447898 C11.9,2.45447898 10.3,2.75502742 8.75,3.40621572 L6.35,1.00182815 C5.8,0.601096892 5.2,0.350639854 4.55,0.350639854 L4.55,0.350639854 L4.55,0.350639854 Z" fill="#00ACC1"></path>
                    </g>
                    <ellipse id="Oval" stroke="#00ACC1" stroke-width="1.5" fill="#FFFFFF" cx="8.35" cy="11.8215722" rx="1.8" ry="1.80329068"></ellipse>
                    <ellipse id="Oval" stroke="#00ACC1" stroke-width="1.5" fill="#FFFFFF" cx="18.7" cy="11.8215722" rx="1.8" ry="1.80329068"></ellipse>
                </g>
                <rect id="Rectangle-path" stroke="#00ACC1" stroke-width="1.5" fill="#F5F5F5" x="78.55" y="24.3784278" width="31.9" height="3.55648995"></rect>
                <path d="M94.75,10.2522852 L94.75,4.74223035" id="Shape" stroke="#00ACC1" stroke-width="1.5"></path>
                <ellipse id="Oval" fill="#00ACC1" cx="94.75" cy="1.8369287" rx="1.2" ry="1.20219378"></ellipse>
                <g id="Group" transform="translate(13.000000, 101.431444)">
                    <rect id="Rectangle-path" stroke="#00ACC1" stroke-width="1.5" fill="#FFFFFF" x="0.2" y="0" width="18.55" height="12.8234004"></rect>
                    <path d="M0.25,13.023766 L0.25,21.5393053" id="Shape" stroke="#00ACC1" stroke-width="1.5"></path>
                    <ellipse id="Oval" fill="#00ACC1" cx="4.7" cy="6.91261426" rx="1.2" ry="1.20219378"></ellipse>
                    <path d="M14.45,6.71224863 L8.95,6.71224863" id="Shape" stroke="#00ACC1" stroke-width="1.5"></path>
                    <path d="M18.75,11.0201097 L18.75,21.5393053" id="Shape" stroke="#00ACC1" stroke-width="1.5"></path>
                </g>
            </g>
            <g id="Group-23" transform="translate(905.000000, 432.000000)">
                <rect id="Rectangle-path" stroke="#F9A825" stroke-width="1.5" fill="#FFFFFF" x="8.6" y="74.1872029" width="4.25" height="31.7579525"></rect>
                <rect id="Rectangle-path" stroke="#F9A825" stroke-width="1.5" fill="#FFFFFF" x="73.7" y="74.1872029" width="4.25" height="31.7579525"></rect>
                <polygon id="Shape" stroke="#F9A825" stroke-width="1.5" fill="#FFFFFF" points="0.1 84.6043876 86.3 84.6043876 119.8 51.1433272 86.3 12.4727605 0.1 12.4727605"></polygon>
                <g id="Group" transform="translate(18.500000, 0.000000)">
                    <path d="M4.4,92.6691042 L44,92.7191956 C46.2,92.7191956 48,90.9159049 48,88.711883 L48.1,4.25776965 C48.1,2.05374771 46.3,0.250457038 44.1,0.250457038 L4.5,0.200365631 C2.3,0.200365631 0.5,2.00365631 0.5,4.20767824 L0.4,88.6617916 C0.4,90.9159049 2.2,92.6691042 4.4,92.6691042 L4.4,92.6691042 Z" id="Shape" stroke="#F9A825" stroke-width="1.5" fill="#FFF8E1"></path>
                    <rect id="Rectangle-path" stroke="#F9A825" stroke-width="1.50000063" fill="#FFFFFF" transform="translate(24.257384, 46.305573) rotate(180.052601) translate(-24.257384, -46.305573) " x="5.83237642" y="13.0949555" width="36.8500155" height="66.4212346"></rect>
                    <ellipse id="Oval" fill="#F9A825" cx="17" cy="6.76234004" rx="1.45" ry="1.45265082"></ellipse>
                    <path d="M22.4,7.01279707 L31.4,7.01279707" id="Shape" stroke="#F9A825" stroke-width="1.5"></path>
                </g>
                <g id="Group" transform="translate(29.500000, 32.058501)" stroke="#F9A825" stroke-width="1.5" fill="#FFF8E1">
                    <path d="M20.45,4.45813528 C21,3.35612431 20.55,2.00365631 19.5,1.45265082 C18.2,0.801462523 16.3,0.350639854 14.6,0.350639854 C9,0.350639854 4.25,4.95904936 4.25,10.4691042 L4.25,12.773309 L2.6,12.773309 C1.4,12.773309 0.4,13.5246801 0.4,14.7769653 C0.4,16.0292505 1.4,16.7806216 2.6,16.7806216 L4.25,16.7806216 L4.25,25.9974406 C4.25,27.2497258 5.05,28.2515539 6.25,28.2515539 C7.45,28.2515539 8.25,27.2497258 8.25,25.9974406 L8.25,16.7806216 L14.5,16.7806216 C15.7,16.7806216 16.7,16.0292505 16.7,14.7769653 C16.7,13.5246801 15.7,12.773309 14.5,12.773309 L8.25,12.773309 L8.25,10.4691042 C8.25,7.46361974 11.25,4.80877514 14.4,4.80877514 C15.4,4.80877514 16.7,5.05923218 17.35,5.40987203 C18.45,6.01096892 19.9,5.56014625 20.45,4.45813528 L20.45,4.45813528 Z" id="Shape"></path>
                    <path d="M22,12.773309 C20.8,12.773309 19.75,13.7751371 19.75,15.0274223 L19.75,25.9974406 C19.75,27.2497258 20.8,28.2515539 22,28.2515539 C23.2,28.2515539 24.25,27.2497258 24.25,25.9974406 L24.25,15.0274223 C24.25,13.7751371 23.2,12.773309 22,12.773309 L22,12.773309 Z" id="Shape"></path>
                </g>
            </g>
            <g id="Group" transform="translate(552.000000, 449.000000)" stroke="#00ACC1" stroke-width="1.5">
                <path d="M5.1,9.06654479 C5.35,6.01096892 7.55,0.450822669 10.25,0.450822669 C12.75,0.450822669 14.85,5.35978062 15.3,8.4654479 C18.9,10.1685558 21.45,13.8753199 21.45,18.1330896 C21.45,18.4837294 21.45,18.8844607 21.4,19.2351005 C22.85,20.2369287 23.8,21.8899452 23.8,23.7934186 C23.8,26.7989031 21.35,29.2533821 18.35,29.2533821 C17.05,29.2533821 15.8,28.8025594 14.9,28.0010969 C13.65,28.502011 12.25,28.8025594 10.85,28.8025594 C4.95,28.8025594 0.2,23.9937843 0.2,18.1330896 C0.1,14.3261426 2.1,10.9700183 5.1,9.06654479 L5.1,9.06654479 Z" id="Shape" fill="#F5F5F5"></path>
                <path d="M10.75,11.0201097 L10.75,41.0749543" id="Shape"></path>
                <path d="M15.6,19.4855576 C15.6,19.4855576 15.6,24.7952468 10.3,24.7952468" id="Shape"></path>
                <path d="M10.3,21.1886654 C10.3,21.1886654 5.15,20.6877514 5.15,14.7769653" id="Shape"></path>
            </g>
            <g id="Group" transform="translate(532.000000, 451.000000)" stroke="#00ACC1" stroke-width="1.5">
                <path d="M0.95,21.8398537 C3.7,19.3352834 5.75,15.979159 7.1,13.4244973 C7.85,11.9718464 9.9,11.9718464 10.65,13.4244973 C12,15.979159 14.05,19.285192 16.8,21.8398537 C18.15,23.0921389 17.25,25.2961609 15.45,25.2961609 L2.35,25.2961609 C0.5,25.2961609 -0.4,23.0420475 0.95,21.8398537 L0.95,21.8398537 Z" id="Shape" fill="#FAFAFA"></path>
                <path d="M3.5,12.3725777 C5.05,10.7696527 6.25,8.86617916 7.15,7.26325411 C7.9,5.91078611 9.9,5.91078611 10.65,7.26325411 C11.55,8.86617916 12.75,10.7696527 14.3,12.3725777 C15.55,13.6749543 14.65,15.7787934 12.9,15.7787934 L4.95,15.7787934 C3.1,15.7787934 2.25,13.6749543 3.5,12.3725777 L3.5,12.3725777 Z" id="Shape" fill="#FAFAFA"></path>
                <path d="M5.05,4.40804388 C5.9,3.45630713 6.6,2.35429616 7.15,1.40255941 C7.9,0.0500914077 9.85,0.0500914077 10.6,1.40255941 C11.15,2.40438757 11.85,3.45630713 12.7,4.40804388 C13.8,5.71042048 12.95,7.76416819 11.2,7.76416819 L6.5,7.76416819 C4.8,7.76416819 3.9,5.76051188 5.05,4.40804388 L5.05,4.40804388 Z" id="Shape" fill="#FAFAFA"></path>
                <path d="M8.75,21.0383912 L8.75,37.5685558" id="Shape"></path>
            </g>
            <g id="Group-4" transform="translate(578.000000, 520.000000)" stroke="#00ACC1" stroke-width="1.5" fill="#FFFFFF">
                <ellipse id="Oval" cx="2.85" cy="5.66837294" rx="1.8" ry="1.80329068"></ellipse>
                <g id="Group" transform="translate(0.000000, 9.475320)">
                    <path d="M5.25,2.80511883 C5.25,1.40255941 4.15,0.250457038 2.75,0.250457038 C1.35,0.250457038 0.25,1.35246801 0.25,2.75502742 L0.25,4.30786106 L5.25,4.30786106 L5.25,2.80511883 L5.25,2.80511883 Z" id="Shape"></path>
                    <path d="M0.25,4.50822669 L0.25,8.51553931" id="Shape"></path>
                    <path d="M5.25,4.50822669 L5.25,8.51553931" id="Shape"></path>
                </g>
                <ellipse id="Oval" cx="14.35" cy="2.16197441" rx="1.8" ry="1.80329068"></ellipse>
                <g id="Group" transform="translate(11.500000, 5.968921)">
                    <path d="M5.25,2.80511883 C5.25,1.40255941 4.15,0.250457038 2.75,0.250457038 C1.35,0.250457038 0.25,1.35246801 0.25,2.75502742 L0.25,7.8142596 L5.25,7.8142596 L5.25,2.80511883 L5.25,2.80511883 Z" id="Shape"></path>
                    <path d="M0.25,8.01462523 L0.25,12.0219378" id="Shape"></path>
                    <path d="M5.25,8.01462523 L5.25,12.0219378" id="Shape"></path>
                </g>
            </g>
            <g id="Group-4" transform="translate(863.000000, 502.000000)">
                <ellipse id="Oval" stroke="#F9A825" stroke-width="1.5" fill="#FFFFFF" cx="18.35" cy="20.1619744" rx="1.8" ry="1.80329068"></ellipse>
                <path d="M19.5293,31.7878 C19.5293,31.7878 24.0753,30.3078 24.3893,26.1968" id="Stroke-43" stroke="#F9A825" stroke-width="1.5" transform="translate(21.959300, 28.992300) scale(1, -1) translate(-21.959300, -28.992300) "></path>
                <path d="M15.1152,26.2007 C15.1152,26.2007 11.3442,26.1747 10.6882,20.0857" id="Stroke-45" stroke="#F9A825" stroke-width="1.5"></path>
                <g id="Group" transform="translate(15.500000, 23.968921)" stroke="#F9A825" stroke-width="1.5" fill="#FFFFFF">
                    <path d="M5.25,2.80511883 C5.25,1.40255941 4.15,0.250457038 2.75,0.250457038 C1.35,0.250457038 0.25,1.35246801 0.25,2.75502742 L0.25,7.8142596 L5.25,7.8142596 L5.25,2.80511883 L5.25,2.80511883 Z" id="Shape"></path>
                    <path d="M0.25,8.01462523 L0.25,12.0219378" id="Shape"></path>
                    <path d="M5.25,8.01462523 L5.25,12.0219378" id="Shape"></path>
                </g>
                <path d="M8.2048,11.6056 L11.2488,11.3226 C11.4238,11.3056 11.4168,11.3386 11.4388,11.5846 L12.0728,18.3956 C12.0848,18.5476 12.0488,18.5166 11.8988,18.5316 L8.8658,18.8136 C8.7118,18.8266 8.7118,18.8626 8.6958,18.7086 L8.0558,11.7806 C8.0418,11.6276 8.0608,11.6186 8.2148,11.6046" id="Stroke-25" stroke="#F9A825" stroke-width="1.5" fill="#FFF8E1"></path>
                <g id="Group-22">
                    <g id="Group-7">
                        <g id="Group-3" transform="translate(1.000000, 1.000000)">
                            <mask id="mask-2" fill="white">
                                <use xlink:href="#path-1"></use>
                            </mask>
                            <g id="Clip-2"></g>
                            <path d="M0.2064,9.26 C-0.2656,4.697 3.0514,0.614 7.6164,0.143 C12.1784,-0.328 16.2624,2.989 16.7334,7.551 C17.2044,12.116 13.8874,16.198 9.3244,16.67 C4.7604,17.141 0.6774,13.824 0.2064,9.26" id="Fill-1" fill="#FFF8E1" mask="url(#mask-2)"></path>
                        </g>
                        <g id="Group-6">
                            <mask id="mask-4" fill="white">
                                <use xlink:href="#path-3"></use>
                            </mask>
                            <g id="Clip-5"></g>
                            <path d="M1.2064,10.26 C0.7344,5.697 4.0514,1.614 8.6164,1.143 C13.1784,0.672 17.2624,3.989 17.7334,8.551 C18.2044,13.116 14.8874,17.198 10.3244,17.67 C5.7604,18.141 1.6774,14.824 1.2064,10.26 L1.2064,10.26 Z" id="Stroke-4" stroke="#F9A825" stroke-width="1.5" mask="url(#mask-4)"></path>
                        </g>
                    </g>
                    <g id="Group-14" transform="translate(3.000000, 3.000000)">
                        <g id="Group-10">
                            <mask id="mask-6" fill="white">
                                <use xlink:href="#path-5"></use>
                            </mask>
                            <g id="Clip-9"></g>
                            <path d="M1.0214,6.9684 C0.7114,3.9604 2.8984,1.2704 5.9064,0.9594 C8.9134,0.6464 11.6074,2.8334 11.9184,5.8424 C12.2284,8.8514 10.0414,11.5434 7.0324,11.8544 C4.0244,12.1654 1.3314,9.9784 1.0214,6.9684" id="Fill-8" fill="#FFF8E1" mask="url(#mask-6)"></path>
                        </g>
                        <g id="Group-13">
                            <mask id="mask-8" fill="white">
                                <use xlink:href="#path-7"></use>
                            </mask>
                            <g id="Clip-12"></g>
                            <path d="M1.0214,6.9684 C0.7114,3.9604 2.8984,1.2704 5.9064,0.9594 C8.9134,0.6464 11.6074,2.8334 11.9184,5.8424 C12.2284,8.8514 10.0414,11.5434 7.0324,11.8544 C4.0244,12.1654 1.3314,9.9784 1.0214,6.9684 L1.0214,6.9684 Z" id="Stroke-11" stroke="#F9A825" stroke-width="1.5" mask="url(#mask-8)"></path>
                        </g>
                    </g>
                    <g id="Group-21" transform="translate(6.000000, 6.000000)">
                        <g id="Group-17">
                            <mask id="mask-10" fill="white">
                                <use xlink:href="#path-9"></use>
                            </mask>
                            <g id="Clip-16"></g>
                            <path d="M0.7651,3.6845 C0.6121,2.1915 1.6971,0.8565 3.1901,0.7025 C4.6831,0.5475 6.0171,1.6325 6.1731,3.1275 C6.3281,4.6195 5.2411,5.9555 3.7481,6.1095 C2.2561,6.2645 0.9201,5.1795 0.7651,3.6845" id="Fill-15" fill="#FFF8E1" mask="url(#mask-10)"></path>
                        </g>
                        <g id="Group-20">
                            <mask id="mask-12" fill="white">
                                <use xlink:href="#path-11"></use>
                            </mask>
                            <g id="Clip-19"></g>
                            <path d="M0.7651,3.6845 C0.6121,2.1915 1.6971,0.8565 3.1901,0.7025 C4.6831,0.5475 6.0171,1.6325 6.1731,3.1275 C6.3281,4.6195 5.2411,5.9555 3.7481,6.1095 C2.2561,6.2645 0.9201,5.1795 0.7651,3.6845 L0.7651,3.6845 Z" id="Stroke-18" stroke="#F9A825" stroke-width="1.5" mask="url(#mask-12)"></path>
                        </g>
                    </g>
                </g>
            </g>
            <g id="Group" transform="translate(493.000000, 505.000000)">
                <path d="M0.2,15.2778793 L0.2,21.8899452 C0.2,23.3926874 1.05,24.7451554 2.4,25.3963437 L10.4,29.2032907 L67.3,29.2032907 L69.75,19.6358318 C70.1,18.3835466 69.75,17.0310786 68.85,16.0292505 L58.6,4.90895795 C57.85,4.10749543 56.85,3.65667276 55.75,3.65667276 L4.1,3.65667276 C1.95,3.65667276 0.25,5.40987203 0.25,7.51371115 L0.25,15.2778793 L0.2,15.2778793 Z" id="Shape" stroke="#00ACC1" stroke-width="1.5" fill="#FFFFFF"></path>
                <ellipse id="Oval" stroke="#00ACC1" stroke-width="1.5" fill="#E0E0E0" cx="18.25" cy="28.752468" rx="5.05" ry="5.05923218"></ellipse>
                <ellipse id="Oval" stroke="#00ACC1" stroke-width="1.5" fill="#E0E0E0" cx="56.35" cy="28.752468" rx="5.05" ry="5.05923218"></ellipse>
                <ellipse id="Oval" fill="#00ACC1" cx="56.35" cy="28.752468" rx="2.05" ry="2.05374771"></ellipse>
                <ellipse id="Oval" fill="#00ACC1" cx="18.25" cy="28.752468" rx="2.05" ry="2.05374771"></ellipse>
                <path d="M65.75,29.6040219 L68.55,29.6040219 C69.1,29.6040219 69.55,29.1531993 69.55,28.6021938 L69.55,26.3981718 C69.55,25.8471664 69.1,25.3963437 68.55,25.3963437 L65.75,25.3963437 C65.2,25.3963437 64.75,25.8471664 64.75,26.3981718 L64.75,28.6021938 C64.75,29.1531993 65.2,29.6040219 65.75,29.6040219 L65.75,29.6040219 Z" id="Shape" stroke="#00ACC1" stroke-width="1.5" fill="#F5F5F5"></path>
                <rect id="Rectangle-path" stroke="#00ACC1" stroke-width="1.5" fill="#FFFFFF" x="39.2" y="10.0182815" width="8.65" height="18.9846435"></rect>
                <path d="M45.75,18.5338208 L45.75,22.5411335" id="Shape" stroke="#00ACC1" stroke-width="1.5"></path>
                <path d="M69.5,18.2833638 L53,18.2833638" id="Shape" stroke="#00ACC1" stroke-width="1.5"></path>
                <path d="M34.5,18.2833638 L0,18.2833638" id="Shape" stroke="#00ACC1" stroke-width="1.5"></path>
                <path d="M11.3,3.60658135 L20.95,3.60658135 L20.95,2.25411335 C20.95,1.25228519 20.15,0.450822669 19.15,0.450822669 L13.1,0.450822669 C12.1,0.450822669 11.3,1.25228519 11.3,2.25411335 L11.3,3.60658135 L11.3,3.60658135 Z" id="Shape" stroke="#00ACC1" stroke-width="1.5"></path>
                <path d="M10.45,14.1758684 L23.5,14.1758684 C24.05,14.1758684 24.5,13.7250457 24.5,13.1740402 L24.5,9.71773309 C24.5,9.16672761 24.05,8.71590494 23.5,8.71590494 L10.45,8.71590494 C9.9,8.71590494 9.45,9.16672761 9.45,9.71773309 L9.45,13.1740402 C9.45,13.7250457 9.9,14.1758684 10.45,14.1758684 L10.45,14.1758684 Z" id="Shape" stroke="#00ACC1" stroke-width="1.5"></path>
                <path d="M67.15,14.2760512 L54.85,14.2760512 C54.3,14.2760512 53.9,13.8252285 53.9,13.3243144 L53.9,9.91809872 C53.9,9.36709324 54.35,8.96636197 54.85,8.96636197 L62.3,8.96636197" id="Shape" stroke="#00ACC1" stroke-width="1.5"></path>
            </g>
        </g>
    </g>
</svg>