<?xml version="1.0" encoding="UTF-8" standalone="no"?>
<svg width="430px" height="417px" viewBox="0 0 430 417" version="1.1" xmlns="http://www.w3.org/2000/svg" xmlns:xlink="http://www.w3.org/1999/xlink">
    <!-- Generator: Sketch 40 (33762) - http://www.bohemiancoding.com/sketch -->
    <title>home_mobile</title>
    <desc>Created with Sketch.</desc>
    <defs>
        <polygon id="path-1" points="0.121272809 6.94811445 12.5857488 5.66099958 12.5857488 0.0738343895 0.121272809 0.0738343895 0.121272809 6.94811445"></polygon>
        <polygon id="path-3" points="7.61833238e-16 7.69811445 14.2525857 6.25674787 14.2525857 0 0 0 0 7.69811445"></polygon>
        <polygon id="path-5" points="0.744226075 5.22886455 8.96238473 4.38023568 8.96238473 0.697188088 0.744226075 0.697188088 0.744226075 5.22886455"></polygon>
        <polygon id="path-7" points="0 5.22886455 9.75176919 4.24967606 9.75176919 0 7.90586093e-16 0 0 5.22886455"></polygon>
        <polygon id="path-9" points="0.563139367 2.76518092 4.64170535 2.34401737 4.64170535 0.515819607 0.563139367 0.515819607 0.563139367 2.76518092"></polygon>
        <polygon id="path-11" points="9.80308648e-16 2.76518092 6.00108873 2.24743688 6.00108873 0 0 0 2.94092595e-15 2.76518092"></polygon>
    </defs>
    <g id="Hero" stroke="none" stroke-width="1" fill="none" fill-rule="evenodd">
        <g id="home_mobile">
            <g id="Group-8" transform="translate(-474.000000, 109.000000)">
                <g id="Landscape" transform="translate(0.000000, 113.250000)">
                    <g id="City" transform="translate(399.072401, 46.500000)" fill="#F6F6F6">
                        <polygon id="Fill-3" points="16.502994 111.796823 94.7820053 111.796823 94.7820053 105 16.502994 105"></polygon>
                        <polygon id="Fill-5" points="500.340773 127.546823 579.607225 127.546823 579.607225 120.75 500.340773 120.75"></polygon>
                        <polygon id="Fill-6" points="22.5040827 165.166515 89.8380554 165.166515 89.8380554 105 22.5040827 105"></polygon>
                        <polygon id="Fill-7" points="485.338051 163.943947 552.125366 163.943947 552.125366 98.25 485.338051 98.25"></polygon>
                        <polygon id="Fill-9" points="73.513337 109.334342 109.738595 109.334342 109.738595 91.5 73.513337 91.5"></polygon>
                        <polygon id="Fill-10" points="221.290147 140.088882 341.182128 140.088882 341.182128 42 221.290147 42"></polygon>
                        <polygon id="Fill-11" points="196.535656 125.838882 236.984007 125.838882 236.984007 27.75 196.535656 27.75"></polygon>
                        <polygon id="Fill-12" points="389.144693 169.338882 453.347722 169.338882 453.347722 69.75 389.144693 69.75"></polygon>
                        <polygon id="Fill-13" points="388.570495 70.8164568 458.574016 70.8164568 458.574016 65.25 388.570495 65.25"></polygon>
                        <polygon id="Fill-14" points="303.054981 55.8164568 373.058502 55.8164568 373.058502 50.25 303.054981 50.25"></polygon>
                        <polygon id="Fill-15" points="214.538922 47.5664568 284.542443 47.5664568 284.542443 42 214.538922 42"></polygon>
                        <polygon id="Fill-16" points="308.305934 149.088882 367.832208 149.088882 367.832208 51 308.305934 51"></polygon>
                        <polygon id="Fill-17" points="184.533478 152.551539 223.540555 152.551539 223.540555 49.5 184.533478 49.5"></polygon>
                        <polygon id="Fill-18" points="138.025041 176.255002 199.96698 176.255002 199.96698 54 138.025041 54"></polygon>
                        <polygon id="Fill-19" points="90.016331 45.7122689 149.369749 45.7122689 149.369749 39 90.016331 39"></polygon>
                        <polygon id="Fill-20" points="75.0136091 80.9622689 148.823207 80.9622689 148.823207 74.25 75.0136091 74.25"></polygon>
                        <polygon id="Fill-21" points="114.770822 171.831943 142.351109 171.831943 142.351109 27 114.770822 27"></polygon>
                        <polygon id="Fill-22" points="400.572673 128.917177 425.768625 128.917177 425.768625 57.75 400.572673 57.75"></polygon>
                        <polygon id="Fill-23" points="349.563419 131.167177 389.6747 131.167177 389.6747 60 349.563419 60"></polygon>
                        <polygon id="Fill-24" points="444.080566 155.167177 484.191848 155.167177 484.191848 84 444.080566 84"></polygon>
                        <polygon id="Fill-25" points="299.3043 101.917177 324.500253 101.917177 324.500253 30.75 299.3043 30.75"></polygon>
                        <polygon id="Fill-26" points="96.7675558 168.503862 174.359464 168.503862 174.359464 39 96.7675558 39"></polygon>
                        <polygon id="Fill-27" points="81.0146979 171.478025 143.675071 171.478025 143.675071 75 81.0146979 75"></polygon>
                        <polygon id="Fill-28" points="471.085465 143.180407 532.562854 143.180407 532.562854 76.5 471.085465 76.5"></polygon>
                        <polygon id="Fill-29" points="488.338596 82.1754221 505.942919 82.1754221 505.942919 62.25 488.338596 62.25"></polygon>
                        <polygon id="Fill-30" points="488.338596 89.1258226 490.759663 89.1258226 490.759663 69.75 488.338596 69.75"></polygon>
                        <polygon id="Fill-31" points="503.341317 89.1258226 505.762385 89.1258226 505.762385 69.75 503.341317 69.75"></polygon>
                        <polyline id="Fill-32" points="488.338596 62.5949289 497.140217 55.5 505.942919 62.5949289"></polyline>
                        <polygon id="Fill-33" points="217.391611 0 204.787153 31.7987233 228.195124 31.0756801"></polygon>
                    </g>
                    <ellipse id="Oval-2" stroke="#4AC3D2" stroke-width="1.125" fill="#FAFAFA" cx="689" cy="805.875" rx="689" ry="688.875"></ellipse>
                </g>
                <g id="Group-12" transform="translate(766.643440, 267.750000)" stroke="#00ACC1" stroke-width="1.125" fill="#FFFFFF">
                    <ellipse id="Oval" cx="4.1257485" cy="1.35246801" rx="1.35024496" ry="1.35246801"></ellipse>
                    <g id="Group" transform="translate(1.987861, 4.207678)">
                        <path d="M3.93821448,2.10383912 C3.93821448,1.05191956 3.11306478,0.187842779 2.06287425,0.187842779 C1.01268372,0.187842779 0.187534023,1.01435101 0.187534023,2.06627057 L0.187534023,5.8606947 L3.93821448,5.8606947 L3.93821448,2.10383912 L3.93821448,2.10383912 Z" id="Shape"></path>
                        <path id="Shape"></path>
                        <path id="Shape"></path>
                    </g>
                    <path id="Shape"></path>
                    <path d="M2.17539467,6.23638026 C2.17539467,6.23638026 0,6.49936015 0,10.0308044" id="Shape"></path>
                </g>
                <g id="Group-15" transform="translate(618.112139, 175.500000)">
                    <rect id="Rectangle-path" fill="#F5F5F5" x="129.473489" y="26.9339122" width="11.4770822" height="11.4584095"></rect>
                    <rect id="Rectangle-path" stroke="#00ACC1" stroke-width="1.125" fill="#FFFFFF" x="0" y="73.0680987" width="44.145509" height="7.55127971"></rect>
                    <rect id="Rectangle-path" stroke="#00ACC1" stroke-width="1.125" fill="#FAFAFA" x="2.06287425" y="28.5493601" width="42.0826347" height="44.5187386"></rect>
                    <rect id="Rectangle-path" stroke="#00ACC1" stroke-width="1.125" fill="#FFFFFF" x="0" y="23.7781536" width="44.145509" height="4.77120658"></rect>
                    <path id="Shape" stroke="#00ACC1" stroke-width="1.125" fill="#FAFAFA"></path>
                    <path id="Shape" stroke="#00ACC1" stroke-width="1.125" fill="#FAFAFA"></path>
                    <rect id="Rectangle-path" stroke="#00ACC1" stroke-width="1.125" fill="#FFFFFF" x="19.6910724" y="56.725777" width="8.02645618" height="11.1578611"></rect>
                    <polygon id="Shape" stroke="#00ACC1" stroke-width="1.125" fill="#FFFFFF" points="18.4533478 57.2893053 28.9927599 57.2893053 23.8543277 52.8937843"></polygon>
                    <rect id="Rectangle-path" stroke="#00ACC1" stroke-width="1.125" fill="#FFFFFF" x="19.6910724" y="37.6785192" width="8.02645618" height="6.57449726"></rect>
                    <rect id="Rectangle-path" stroke="#00ACC1" stroke-width="1.125" fill="#EEEEEE" x="18.1908002" y="35.1989945" width="11.0645073" height="2.47952468"></rect>
                    <rect id="Rectangle-path" fill="#9E9E9E" opacity="0.15" x="20.2536745" y="38.2420475" width="6.90125204" height="2.47952468"></rect>
                    <rect id="Rectangle-path" fill="#9E9E9E" opacity="0.15" x="20.2536745" y="57.8152651" width="6.90125204" height="2.47952468"></rect>
                    <rect id="Rectangle-path" stroke="#00ACC1" stroke-width="1.125" fill="#FFFFFF" x="97.8927599" y="73.0680987" width="44.145509" height="7.55127971"></rect>
                    <rect id="Rectangle-path" stroke="#00ACC1" stroke-width="1.125" fill="#FAFAFA" x="97.8927599" y="28.5493601" width="42.0826347" height="44.5187386"></rect>
                    <rect id="Rectangle-path" stroke="#00ACC1" stroke-width="1.125" fill="#F5F5F5" x="43.8829614" y="28.7372029" width="54.3848666" height="46.3971664"></rect>
                    <rect id="Rectangle-path" stroke="#00ACC1" stroke-width="1.125" fill="#FFFFFF" x="97.8927599" y="23.7781536" width="44.145509" height="4.77120658"></rect>
                    <rect id="Rectangle-path" stroke="#00ACC1" stroke-width="1.125" fill="#FFFFFF" x="39.9822537" y="29.7139854" width="61.2111051" height="2.40438757"></rect>
                    <rect id="Rectangle-path" stroke="#00ACC1" stroke-width="1.125" fill="#FFFFFF" x="39.9822537" y="75.0592322" width="61.2111051" height="2.93034735"></rect>
                    <rect id="Rectangle-path" stroke="#00ACC1" stroke-width="1.125" fill="#FFFFFF" x="37.6568318" y="77.9895795" width="65.8619488" height="2.6297989"></rect>
                    <rect id="Rectangle-path" stroke="#00ACC1" stroke-width="1.125" fill="#FFFFFF" x="34.7688078" y="80.7696527" width="71.6755035" height="2.6297989"></rect>
                    <rect id="Rectangle-path" stroke="#00ACC1" stroke-width="1.125" fill="#FAFAFA" x="39.9822537" y="21.035649" width="61.2111051" height="8.67833638"></rect>
                    <path id="Shape" stroke="#00ACC1" stroke-width="1.125" fill="#FAFAFA"></path>
                    <path id="Shape" stroke="#00ACC1" stroke-width="1.125" fill="#FAFAFA"></path>
                    <path d="M64.6992379,74.7586837 L64.6992379,63.3002742 C64.6992379,60.0318099 67.4372346,57.3644424 70.7003266,57.3644424 C73.9634186,57.3644424 76.7014154,60.0318099 76.7014154,63.3002742 L76.7014154,74.7586837 L64.6992379,74.7586837 L64.6992379,74.7586837 Z" id="Shape" stroke="#00ACC1" stroke-width="1.125" fill="#EEEEEE"></path>
                    <rect id="Rectangle-path" stroke="#00ACC1" stroke-width="1.125" fill="#FFFFFF" x="114.32074" y="56.725777" width="8.02645618" height="11.1578611"></rect>
                    <polygon id="Shape" stroke="#00ACC1" stroke-width="1.125" fill="#FFFFFF" points="123.622428 57.2893053 113.083016 57.2893053 118.183941 52.8937843"></polygon>
                    <rect id="Rectangle-path" stroke="#00ACC1" stroke-width="1.125" fill="#FFFFFF" x="114.32074" y="37.6785192" width="8.02645618" height="6.57449726"></rect>
                    <rect id="Rectangle-path" stroke="#00ACC1" stroke-width="1.125" fill="#E0E0E0" x="114.32074" y="77.5011883" width="8.02645618" height="3.08062157"></rect>
                    <rect id="Rectangle-path" stroke="#00ACC1" stroke-width="1.125" fill="#EEEEEE" x="112.820468" y="35.1989945" width="11.0645073" height="2.47952468"></rect>
                    <rect id="Rectangle-path" fill="#9E9E9E" opacity="0.15" x="114.883342" y="38.2420475" width="6.90125204" height="2.47952468"></rect>
                    <rect id="Rectangle-path" fill="#DBDBDB" opacity="0.5" x="44.4455634" y="32.6819013" width="53.2221557" height="3.98226691"></rect>
                    <rect id="Rectangle-path" fill="#9E9E9E" opacity="0.15" x="114.883342" y="57.8152651" width="6.90125204" height="2.47952468"></rect>
                    <g id="Group" transform="translate(82.139902, 32.118373)" stroke="#00ACC1" stroke-width="1.125" fill="#FFFFFF">
                        <rect id="Rectangle-path" x="1.35024496" y="0.0375685558" width="6.26363636" height="37.0050274"></rect>
                        <rect id="Rectangle-path" x="0" y="35.7276965" width="8.58905825" height="7.06288848"></rect>
                        <rect id="Rectangle-path" x="0.375068046" y="0.112705667" width="8.2139902" height="2.9679159"></rect>
                    </g>
                    <g id="Group" transform="translate(51.009254, 32.118373)" stroke="#00ACC1" stroke-width="1.125" fill="#FFFFFF">
                        <rect id="Rectangle-path" x="1.42525857" y="0.112705667" width="6.26363636" height="37.0050274"></rect>
                        <rect id="Rectangle-path" x="0.0750136091" y="35.8028336" width="8.58905825" height="7.06288848"></rect>
                        <rect id="Rectangle-path" x="0.450081655" y="0.187842779" width="8.2139902" height="2.9679159"></rect>
                    </g>
                    <polygon id="Shape" stroke="#00ACC1" stroke-width="1.125" fill="#FFFFFF" points="97.8177463 20.961883 43.5829069 20.961883 71.0753947 9.11407678"></polygon>
                    <g id="Group" transform="translate(60.761023, 5.510512)">
                        <g id="Shape">
                            <path d="M0.825149701,13.3368373 L0.825149701,11.7965265 C0.825149701,9.01645338 2.02536745,6.49936015 4.1257485,4.69606947 L2.4754491,3.04305302 C1.98786064,2.55466179 1.98786064,1.72815356 2.4754491,1.20219378 C2.73799673,0.939213894 3.03805117,0.826508227 3.37561241,0.826508227 C3.71317365,0.826508227 4.05073489,0.97678245 4.27577572,1.20219378 L6.37615678,3.30603291 C7.57637452,2.74250457 8.85160588,2.47952468 10.1268372,2.47952468 C11.4020686,2.47952468 12.6772999,2.74250457 13.8775177,3.30603291 L15.9778987,1.20219378 C16.2029396,0.97678245 16.5405008,0.826508227 16.8780621,0.826508227 C17.2156233,0.826508227 17.5531845,0.97678245 17.7782254,1.20219378 C18.2658138,1.69058501 18.2658138,2.51709324 17.7782254,3.04305302 L16.127926,4.69606947 C18.228307,6.46179159 19.4285248,9.01645338 19.4285248,11.7965265 L19.4285248,13.3368373 L0.825149701,13.3368373 L0.825149701,13.3368373 Z" fill="#FFFFFF"></path>
                            <path d="M3.41311922,1.39003656 C3.60065324,1.39003656 3.78818726,1.46517367 3.93821448,1.6154479 L6.30114317,3.98226691 C7.46385411,3.41873857 8.77659227,3.04305302 10.164344,3.04305302 L10.164344,3.04305302 C11.5520958,3.04305302 12.864834,3.41873857 14.0275449,3.98226691 L16.3904736,1.6154479 C16.5405008,1.46517367 16.7280348,1.39003656 16.9155689,1.39003656 C17.1031029,1.39003656 17.2906369,1.46517367 17.4406641,1.6154479 C17.7407186,1.91599634 17.7407186,2.36681901 17.4406641,2.6297989 L15.3402831,4.73363803 C17.5156777,6.31151737 18.9409363,8.86617916 18.9409363,11.7965265 L18.9409363,12.773309 L1.46276538,12.773309 L1.46276538,11.7965265 C1.46276538,8.90374771 2.88802395,6.34908592 5.06341862,4.77120658 L2.96303756,2.66736746 C2.66298312,2.36681901 2.66298312,1.91599634 2.96303756,1.65301645 C3.03805117,1.46517367 3.22558519,1.39003656 3.41311922,1.39003656 L3.41311922,1.39003656 Z M3.41311922,0.26297989 L3.41311922,1.39003656 L3.41311922,0.26297989 C2.92553076,0.26297989 2.4379423,0.450822669 2.10038106,0.788939671 C1.38775177,1.50274223 1.38775177,2.70493601 2.10038106,3.41873857 L3.33810561,4.65850091 C1.38775177,6.49936015 0.300054437,9.05402194 0.262547632,11.758958 L0.262547632,12.7357404 L0.262547632,13.8627971 L1.38775177,13.8627971 L18.8659227,13.8627971 L19.9911268,13.8627971 L19.9911268,12.7357404 L19.9911268,11.758958 C19.9911268,9.01645338 18.9034295,6.49936015 16.9530757,4.62093236 L18.1908002,3.38117002 C18.9034295,2.66736746 18.9034295,1.46517367 18.1908002,0.751371115 C17.853239,0.413254113 17.3656505,0.225411335 16.8780621,0.225411335 C16.3904736,0.225411335 15.9028851,0.413254113 15.5653239,0.751371115 L13.7649973,2.55466179 C12.6022863,2.06627057 11.3645618,1.84085923 10.164344,1.84085923 C8.92661949,1.84085923 7.72640174,2.06627057 6.5636908,2.55466179 L4.76336418,0.751371115 C4.35078933,0.450822669 3.90070768,0.26297989 3.41311922,0.26297989 L3.41311922,0.26297989 L3.41311922,0.26297989 Z" fill="#00ACC1"></path>
                        </g>
                        <ellipse id="Oval" stroke="#00ACC1" stroke-width="1.125" fill="#FFFFFF" cx="6.26363636" cy="8.86617916" rx="1.35024496" ry="1.35246801"></ellipse>
                        <ellipse id="Oval" stroke="#00ACC1" stroke-width="1.125" fill="#FFFFFF" cx="14.0275449" cy="8.86617916" rx="1.35024496" ry="1.35246801"></ellipse>
                    </g>
                    <rect id="Rectangle-path" stroke="#00ACC1" stroke-width="1.125" fill="#F5F5F5" x="58.92319" y="18.2838208" width="23.9293413" height="2.66736746"></rect>
                    <path id="Shape" stroke="#00ACC1" stroke-width="1.125"></path>
                    <ellipse id="Oval" fill="#00ACC1" cx="71.0753947" cy="1.37769653" rx="0.90016331" ry="0.901645338"></ellipse>
                    <g id="Group" transform="translate(9.751769, 76.073583)">
                        <rect id="Rectangle-path" stroke="#00ACC1" stroke-width="1.125" fill="#FFFFFF" x="0.150027218" y="0" width="13.9150245" height="9.61755027"></rect>
                        <path id="Shape" stroke="#00ACC1" stroke-width="1.125"></path>
                        <ellipse id="Oval" fill="#00ACC1" cx="3.52563963" cy="5.18446069" rx="0.90016331" ry="0.901645338"></ellipse>
                        <path id="Shape" stroke="#00ACC1" stroke-width="1.125"></path>
                        <path id="Shape" stroke="#00ACC1" stroke-width="1.125"></path>
                    </g>
                </g>
                <g id="Group-23" transform="translate(804.150245, 201.750000)">
                    <rect id="Rectangle-path" stroke="#F9A825" stroke-width="1.125" fill="#FFFFFF" x="6.45117039" y="55.6404022" width="3.18807839" height="23.8184644"></rect>
                    <rect id="Rectangle-path" stroke="#F9A825" stroke-width="1.125" fill="#FFFFFF" x="55.2850299" y="55.6404022" width="3.18807839" height="23.8184644"></rect>
                    <polygon id="Shape" stroke="#F9A825" stroke-width="1.125" fill="#FFFFFF" points="0.0750136091 63.4532907 64.7367447 63.4532907 89.8663038 38.3574954 64.7367447 9.35457038 0.0750136091 9.35457038"></polygon>
                    <g id="Group" transform="translate(13.877518, 0.000000)">
                        <path d="M3.3005988,69.5018282 L33.005988,69.5393967 C34.6562874,69.5393967 36.0065324,68.1869287 36.0065324,66.5339122 L36.081546,3.19332724 C36.081546,1.54031079 34.731301,0.187842779 33.0810016,0.187842779 L3.37561241,0.150274223 C1.72531301,0.150274223 0.375068046,1.50274223 0.375068046,3.15575868 L0.300054437,66.4963437 C0.300054437,68.1869287 1.6502994,69.5018282 3.3005988,69.5018282 L3.3005988,69.5018282 Z" id="Shape" stroke="#F9A825" stroke-width="1.125" fill="#FFF8E1"></path>
                        <rect id="Rectangle-path" stroke="#F9A825" stroke-width="1.12500047" fill="#FFFFFF" transform="translate(18.196339, 34.729180) rotate(180.052601) translate(-18.196339, -34.729180) " x="4.37507605" y="9.82121662" width="27.6425266" height="49.8159259"></rect>
                        <ellipse id="Oval" fill="#F9A825" cx="12.7523136" cy="5.07175503" rx="1.08769733" ry="1.08948812"></ellipse>
                        <path id="Shape" stroke="#F9A825" stroke-width="1.125"></path>
                    </g>
                    <g id="Group" transform="translate(22.129015, 24.043876)" stroke="#F9A825" stroke-width="1.125" fill="#FFF8E1">
                        <path d="M15.3402831,3.34360146 C15.7528579,2.51709324 15.4152967,1.50274223 14.6276538,1.08948812 C13.6524769,0.601096892 12.2272183,0.26297989 10.9519869,0.26297989 C6.75122482,0.26297989 3.18807839,3.71928702 3.18807839,7.85182815 L3.18807839,9.57998172 L1.95035384,9.57998172 C1.05019053,9.57998172 0.300054437,10.1435101 0.300054437,11.0827239 C0.300054437,12.0219378 1.05019053,12.5854662 1.95035384,12.5854662 L3.18807839,12.5854662 L3.18807839,19.4980804 C3.18807839,20.4372943 3.78818726,21.1886654 4.68835057,21.1886654 C5.58851388,21.1886654 6.18862275,20.4372943 6.18862275,19.4980804 L6.18862275,12.5854662 L10.8769733,12.5854662 C11.7771366,12.5854662 12.5272727,12.0219378 12.5272727,11.0827239 C12.5272727,10.1435101 11.7771366,9.57998172 10.8769733,9.57998172 L6.18862275,9.57998172 L6.18862275,7.85182815 C6.18862275,5.59771481 8.43903103,3.60658135 10.8019597,3.60658135 C11.5520958,3.60658135 12.5272727,3.79442413 13.0148612,4.05740402 C13.8400109,4.50822669 14.9277082,4.17010969 15.3402831,3.34360146 L15.3402831,3.34360146 Z" id="Shape"></path>
                        <path d="M16.502994,9.57998172 C15.6028307,9.57998172 14.8151878,10.3313528 14.8151878,11.2705667 L14.8151878,19.4980804 C14.8151878,20.4372943 15.6028307,21.1886654 16.502994,21.1886654 C17.4031573,21.1886654 18.1908002,20.4372943 18.1908002,19.4980804 L18.1908002,11.2705667 C18.1908002,10.3313528 17.4031573,9.57998172 16.502994,9.57998172 L16.502994,9.57998172 Z" id="Shape"></path>
                    </g>
                </g>
                <g id="Group" transform="translate(563.352205, 214.500000)" stroke="#00ACC1" stroke-width="1.125">
                    <path d="M3.82569407,6.79990859 C4.01322809,4.50822669 5.66352749,0.338117002 7.68889494,0.338117002 C9.56423517,0.338117002 11.139521,4.01983547 11.4770822,6.34908592 C14.1775721,7.62641682 16.0904192,10.4064899 16.0904192,13.5998172 C16.0904192,13.8627971 16.0904192,14.1633455 16.0529124,14.4263254 C17.1406097,15.1776965 17.853239,16.4174589 17.853239,17.845064 C17.853239,20.0991773 16.0154056,21.9400366 13.7649973,21.9400366 C12.7898204,21.9400366 11.8521502,21.6019196 11.1770278,21.0008227 C10.2393576,21.3765082 9.18916712,21.6019196 8.13897659,21.6019196 C3.71317365,21.6019196 0.150027218,17.9953382 0.150027218,13.5998172 C0.0750136091,10.7446069 1.57528579,8.22751371 3.82569407,6.79990859 L3.82569407,6.79990859 Z" id="Shape" fill="#F5F5F5"></path>
                    <path id="Shape"></path>
                    <path d="M11.702123,14.6141682 C11.702123,14.6141682 11.702123,18.5964351 7.72640174,18.5964351" id="Shape"></path>
                    <path d="M7.72640174,15.8914991 C7.72640174,15.8914991 3.86320087,15.5158135 3.86320087,11.0827239" id="Shape"></path>
                </g>
                <g id="Group" transform="translate(548.349483, 216.000000)" stroke="#00ACC1" stroke-width="1.125">
                    <path d="M0.712629287,16.3798903 C2.77550354,14.5014625 4.31328253,11.9843693 5.32596625,10.0683729 C5.88856832,8.97888483 7.42634731,8.97888483 7.98894937,10.0683729 C9.0016331,11.9843693 10.5394121,14.463894 12.6022863,16.3798903 C13.6149701,17.3191042 12.9398476,18.9721207 11.5896026,18.9721207 L1.76281981,18.9721207 C0.375068046,18.9721207 -0.300054437,17.2815356 0.712629287,16.3798903 L0.712629287,16.3798903 Z" id="Shape" fill="#FAFAFA"></path>
                    <path d="M2.62547632,9.27943327 C3.78818726,8.07723949 4.68835057,6.64963437 5.36347305,5.44744059 C5.92607512,4.43308958 7.42634731,4.43308958 7.98894937,5.44744059 C8.66407186,6.64963437 9.56423517,8.07723949 10.7269461,9.27943327 C11.6646162,10.2562157 10.9894937,11.8340951 9.67675558,11.8340951 L3.71317365,11.8340951 C2.32542188,11.8340951 1.68780621,10.2562157 2.62547632,9.27943327 L2.62547632,9.27943327 Z" id="Shape" fill="#FAFAFA"></path>
                    <path d="M3.78818726,3.30603291 C4.42580294,2.59223035 4.9508982,1.76572212 5.36347305,1.05191956 C5.92607512,0.0375685558 7.3888405,0.0375685558 7.95144257,1.05191956 C8.36401742,1.80329068 8.88911268,2.59223035 9.52672836,3.30603291 C10.3518781,4.28281536 9.71426238,5.82312614 8.40152422,5.82312614 L4.87588459,5.82312614 C3.60065324,5.82312614 2.92553076,4.32038391 3.78818726,3.30603291 L3.78818726,3.30603291 Z" id="Shape" fill="#FAFAFA"></path>
                    <path id="Shape"></path>
                </g>
                <g id="Group-4" transform="translate(582.855743, 267.750000)" stroke="#00ACC1" stroke-width="1.125" fill="#FFFFFF">
                    <ellipse id="Oval" cx="2.13788786" cy="4.25127971" rx="1.35024496" ry="1.35246801"></ellipse>
                    <g id="Group" transform="translate(0.000000, 7.106490)">
                        <path d="M3.93821448,2.10383912 C3.93821448,1.05191956 3.11306478,0.187842779 2.06287425,0.187842779 C1.01268372,0.187842779 0.187534023,1.01435101 0.187534023,2.06627057 L0.187534023,3.2308958 L3.93821448,3.2308958 L3.93821448,2.10383912 L3.93821448,2.10383912 Z" id="Shape"></path>
                        <path id="Shape"></path>
                        <path id="Shape"></path>
                    </g>
                    <ellipse id="Oval" cx="10.7644529" cy="1.6214808" rx="1.35024496" ry="1.35246801"></ellipse>
                    <g id="Group" transform="translate(8.626565, 4.476691)">
                        <path d="M3.93821448,2.10383912 C3.93821448,1.05191956 3.11306478,0.187842779 2.06287425,0.187842779 C1.01268372,0.187842779 0.187534023,1.01435101 0.187534023,2.06627057 L0.187534023,5.8606947 L3.93821448,5.8606947 L3.93821448,2.10383912 L3.93821448,2.10383912 Z" id="Shape"></path>
                        <path id="Shape"></path>
                        <path id="Shape"></path>
                    </g>
                </g>
                <g id="Group-4" transform="translate(772.644529, 254.250000)">
                    <ellipse id="Oval" stroke="#F9A825" stroke-width="1.125" fill="#FFFFFF" cx="13.7649973" cy="15.1214808" rx="1.35024496" ry="1.35246801"></ellipse>
                    <path d="M14.6496328,23.84085 C14.6496328,23.84085 18.0597514,22.73085 18.2952942,19.6476" id="Stroke-43" stroke="#F9A825" stroke-width="1.125" transform="translate(16.472463, 21.744225) scale(1, -1) translate(-16.472463, -21.744225) "></path>
                    <path d="M11.338457,19.650525 C11.338457,19.650525 8.50969385,19.631025 8.01760457,15.064275" id="Stroke-45" stroke="#F9A825" stroke-width="1.125"></path>
                    <g id="Group" transform="translate(11.627109, 17.976691)" stroke="#F9A825" stroke-width="1.125" fill="#FFFFFF">
                        <path d="M3.93821448,2.10383912 C3.93821448,1.05191956 3.11306478,0.187842779 2.06287425,0.187842779 C1.01268372,0.187842779 0.187534023,1.01435101 0.187534023,2.06627057 L0.187534023,5.8606947 L3.93821448,5.8606947 L3.93821448,2.10383912 L3.93821448,2.10383912 Z" id="Shape"></path>
                        <path id="Shape"></path>
                        <path id="Shape"></path>
                    </g>
                    <path d="M6.1547166,8.7042 L8.43813087,8.49195 C8.56940468,8.4792 8.56415373,8.50395 8.58065672,8.68845 L9.056243,13.7967 C9.06524464,13.9107 9.03823974,13.88745 8.92571932,13.8987 L6.65055656,14.1102 C6.5350356,14.11995 6.5350356,14.14695 6.52303342,14.03145 L6.04294633,8.83545 C6.03244442,8.7207 6.04669701,8.71395 6.16221796,8.70345" id="Stroke-25" stroke="#F9A825" stroke-width="1.125" fill="#FFF8E1"></path>
                    <g id="Group-22">
                        <g id="Group-7">
                            <g id="Group-3" transform="translate(0.750136, 0.750000)">
                                <mask id="mask-2" fill="white">
                                    <use xlink:href="#path-1"></use>
                                </mask>
                                <g id="Clip-2"></g>
                                <path d="M0.154828089,6.945 C-0.199236146,3.52275 2.28896527,0.4605 5.71333653,0.10725 C9.13545738,-0.246 12.1990132,2.24175 12.5523273,5.66325 C12.9056414,9.087 10.41744,12.1485 6.99456897,12.5025 C3.57094785,12.85575 0.508142188,10.368 0.154828089,6.945" id="Fill-1" fill="#FFF8E1" mask="url(#mask-2)"></path>
                            </g>
                            <g id="Group-6">
                                <mask id="mask-4" fill="white">
                                    <use xlink:href="#path-3"></use>
                                </mask>
                                <g id="Clip-5"></g>
                                <path d="M0.904964181,7.695 C0.550899946,4.27275 3.03910136,1.2105 6.46347262,0.85725 C9.88559347,0.504 12.9491493,2.99175 13.3024634,6.41325 C13.6557775,9.837 11.167576,12.8985 7.74470506,13.2525 C4.32108394,13.60575 1.25827828,11.118 0.904964181,7.695 L0.904964181,7.695 Z" id="Stroke-4" stroke="#F9A825" stroke-width="1.125" mask="url(#mask-4)"></path>
                            </g>
                        </g>
                        <g id="Group-14" transform="translate(2.250408, 2.250000)">
                            <g id="Group-10">
                                <mask id="mask-6" fill="white">
                                    <use xlink:href="#path-5"></use>
                                </mask>
                                <g id="Clip-9"></g>
                                <path d="M0.766189004,5.2263 C0.533646815,2.9703 2.17419445,0.9528 4.43060381,0.71955 C6.68626304,0.4848 8.70712967,2.12505 8.94042199,4.3818 C9.17296418,6.63855 7.53241655,8.65755 5.27525705,8.8908 C3.01884769,9.12405 0.998731192,7.4838 0.766189004,5.2263" id="Fill-8" fill="#FFF8E1" mask="url(#mask-6)"></path>
                            </g>
                            <g id="Group-13">
                                <mask id="mask-8" fill="white">
                                    <use xlink:href="#path-7"></use>
                                </mask>
                                <g id="Clip-12"></g>
                                <path d="M0.766189004,5.2263 C0.533646815,2.9703 2.17419445,0.9528 4.43060381,0.71955 C6.68626304,0.4848 8.70712967,2.12505 8.94042199,4.3818 C9.17296418,6.63855 7.53241655,8.65755 5.27525705,8.8908 C3.01884769,9.12405 0.998731192,7.4838 0.766189004,5.2263 L0.766189004,5.2263 Z" id="Stroke-11" stroke="#F9A825" stroke-width="1.125" mask="url(#mask-8)"></path>
                            </g>
                        </g>
                        <g id="Group-21" transform="translate(4.500817, 4.500000)">
                            <g id="Group-17">
                                <mask id="mask-10" fill="white">
                                    <use xlink:href="#path-9"></use>
                                </mask>
                                <g id="Clip-16"></g>
                                <path d="M0.573929124,2.763375 C0.459158302,1.643625 1.27305596,0.642375 2.39300915,0.526875 C3.51296233,0.410625 4.51364388,1.224375 4.63066511,2.345625 C4.7469362,3.464625 3.93153827,4.466625 2.81158508,4.582125 C1.69238204,4.698375 0.690200218,3.884625 0.573929124,2.763375" id="Fill-15" fill="#FFF8E1" mask="url(#mask-10)"></path>
                            </g>
                            <g id="Group-20">
                                <mask id="mask-12" fill="white">
                                    <use xlink:href="#path-11"></use>
                                </mask>
                                <g id="Clip-19"></g>
                                <path d="M0.573929124,2.763375 C0.459158302,1.643625 1.27305596,0.642375 2.39300915,0.526875 C3.51296233,0.410625 4.51364388,1.224375 4.63066511,2.345625 C4.7469362,3.464625 3.93153827,4.466625 2.81158508,4.582125 C1.69238204,4.698375 0.690200218,3.884625 0.573929124,2.763375 L0.573929124,2.763375 Z" id="Stroke-18" stroke="#F9A825" stroke-width="1.125" mask="url(#mask-12)"></path>
                            </g>
                        </g>
                    </g>
                </g>
                <g id="Group" transform="translate(519.094175, 256.500000)">
                    <path d="M0.150027218,11.4584095 L0.150027218,16.4174589 C0.150027218,17.5445155 0.787642896,18.5588665 1.80032662,19.0472578 L7.80141535,21.902468 L50.484159,21.902468 L52.3219924,14.7268739 C52.58454,13.78766 52.3219924,12.773309 51.6468699,12.0219378 L43.957975,3.68171846 C43.3953729,3.08062157 42.6452368,2.74250457 41.8200871,2.74250457 L3.07555797,2.74250457 C1.46276538,2.74250457 0.187534023,4.05740402 0.187534023,5.63528336 L0.187534023,11.4584095 L0.150027218,11.4584095 Z" id="Shape" stroke="#00ACC1" stroke-width="1.125" fill="#FFFFFF"></path>
                    <ellipse id="Oval" stroke="#00ACC1" stroke-width="1.125" fill="#E0E0E0" cx="13.6899837" cy="21.564351" rx="3.78818726" ry="3.79442413"></ellipse>
                    <ellipse id="Oval" stroke="#00ACC1" stroke-width="1.125" fill="#E0E0E0" cx="42.2701688" cy="21.564351" rx="3.78818726" ry="3.79442413"></ellipse>
                    <ellipse id="Oval" fill="#00ACC1" cx="42.2701688" cy="21.564351" rx="1.53777899" ry="1.54031079"></ellipse>
                    <ellipse id="Oval" fill="#00ACC1" cx="13.6899837" cy="21.564351" rx="1.53777899" ry="1.54031079"></ellipse>
                    <path d="M49.321448,22.2030165 L51.4218291,22.2030165 C51.8344039,22.2030165 52.1719652,21.8648995 52.1719652,21.4516453 L52.1719652,19.7986289 C52.1719652,19.3853748 51.8344039,19.0472578 51.4218291,19.0472578 L49.321448,19.0472578 C48.9088732,19.0472578 48.5713119,19.3853748 48.5713119,19.7986289 L48.5713119,21.4516453 C48.5713119,21.8648995 48.9088732,22.2030165 49.321448,22.2030165 L49.321448,22.2030165 Z" id="Shape" stroke="#00ACC1" stroke-width="1.125" fill="#F5F5F5"></path>
                    <rect id="Rectangle-path" stroke="#00ACC1" stroke-width="1.125" fill="#FFFFFF" x="29.4053348" y="7.51371115" width="6.48867719" height="14.2384826"></rect>
                    <path id="Shape" stroke="#00ACC1" stroke-width="1.125"></path>
                    <path id="Shape" stroke="#00ACC1" stroke-width="1.125"></path>
                    <path id="Shape" stroke="#00ACC1" stroke-width="1.125"></path>
                    <path d="M8.47653783,2.70493601 L15.7153511,2.70493601 L15.7153511,1.69058501 C15.7153511,0.939213894 15.1152422,0.338117002 14.3651062,0.338117002 L9.8267828,0.338117002 C9.07664671,0.338117002 8.47653783,0.939213894 8.47653783,1.69058501 L8.47653783,2.70493601 L8.47653783,2.70493601 Z" id="Shape" stroke="#00ACC1" stroke-width="1.125"></path>
                    <path d="M7.83892216,10.6319013 L17.6281981,10.6319013 C18.040773,10.6319013 18.3783342,10.2937843 18.3783342,9.88053016 L18.3783342,7.28829982 C18.3783342,6.8750457 18.040773,6.5369287 17.6281981,6.5369287 L7.83892216,6.5369287 C7.42634731,6.5369287 7.08878606,6.8750457 7.08878606,7.28829982 L7.08878606,9.88053016 C7.08878606,10.2937843 7.42634731,10.6319013 7.83892216,10.6319013 L7.83892216,10.6319013 Z" id="Shape" stroke="#00ACC1" stroke-width="1.125"></path>
                    <path d="M50.3716385,10.7070384 L41.1449646,10.7070384 C40.7323898,10.7070384 40.4323353,10.3689214 40.4323353,9.99323583 L40.4323353,7.43857404 C40.4323353,7.02531993 40.7698966,6.72477148 41.1449646,6.72477148 L46.7334785,6.72477148" id="Shape" stroke="#00ACC1" stroke-width="1.125"></path>
                </g>
            </g>
            <path d="M82,344 L82,354.049876" id="Line" stroke="#00ACC1" stroke-linecap="square"></path>
            <path d="M99,345 L99,355.049876" id="Line" stroke="#00ACC1" stroke-linecap="square"></path>
            <path d="M109,387 L109,390" id="Line" stroke="#00ACC1" stroke-linecap="square"></path>
            <path d="M112,387 L112,390" id="Line" stroke="#00ACC1" stroke-linecap="square"></path>
            <path d="M118,387 L118,390" id="Line" stroke="#00ACC1" stroke-linecap="square"></path>
            <path d="M121,387 L121,390" id="Line" stroke="#00ACC1" stroke-linecap="square"></path>
            <path d="M295,387 L295,390" id="Line" stroke="#00ACC1" stroke-linecap="square"></path>
            <path d="M298,387 L298,390" id="Line" stroke="#00ACC1" stroke-linecap="square"></path>
            <path d="M311,387 L311,390" id="Line" stroke="#F9A825" stroke-linecap="square"></path>
            <path d="M314,387 L314,390" id="Line" stroke="#F9A825" stroke-linecap="square"></path>
            <path d="M215,286.477319 L215,292" id="Line" stroke="#00ACC1" stroke-linecap="square"></path>
            <path d="M52,379 L68.0312195,379" id="Line" stroke="#00ACC1" stroke-linecap="square"></path>
            <path d="M360,316 L368.514693,316" id="Line" stroke="#F9A825" stroke-linecap="square"></path>
        </g>
    </g>
</svg>