<?xml version="1.0" encoding="UTF-8" standalone="no"?>
<svg width="720px" height="512px" viewBox="0 0 720 512" version="1.1" xmlns="http://www.w3.org/2000/svg" xmlns:xlink="http://www.w3.org/1999/xlink">
    <!-- Generator: Sketch 40 (33762) - http://www.bohemiancoding.com/sketch -->
    <title>Group 6</title>
    <desc>Created with Sketch.</desc>
    <defs>
        <rect id="path-1" x="0" y="0" width="720" height="512"></rect>
        <mask id="mask-2" maskContentUnits="userSpaceOnUse" maskUnits="objectBoundingBox" x="0" y="0" width="720" height="512" fill="white">
            <use xlink:href="#path-1"></use>
        </mask>
        <mask id="mask-4" maskContentUnits="userSpaceOnUse" maskUnits="objectBoundingBox" x="0" y="0" width="720" height="512" fill="white">
            <use xlink:href="#path-1"></use>
        </mask>
    </defs>
    <g id="Screens" stroke="none" stroke-width="1" fill="none" fill-rule="evenodd">
        <g id="Home" transform="translate(0.000000, -1664.000000)">
            <g id="Group-6" transform="translate(0.000000, 1664.000000)">
                <mask id="mask-3" fill="white">
                    <use xlink:href="#path-1"></use>
                </mask>
                <g id="Mask" stroke-opacity="0.01" stroke="#FFFFFF" mask="url(#mask-2)" stroke-width="2">
                    <use mask="url(#mask-4)" xlink:href="#path-1"></use>
                </g>
                <g mask="url(#mask-3)" fill="#00ACC1">
                    <g transform="translate(371.500000, 206.500000) scale(-1, 1) translate(-371.500000, -206.500000) translate(142.000000, 151.000000)">
                        <path d="M458.228,2.614 C458.228,1.17 457.058,0 455.614,0 C454.17,0 453,1.17 453,2.614 C453,4.058 454.17,5.228 455.614,5.228 C457.058,5.228 458.228,4.058 458.228,2.614" id="Fill-21"></path>
                        <path d="M5.228,107.614 C5.228,106.17 4.058,105 2.614,105 C1.17,105 0,106.17 0,107.614 C0,109.058 1.17,110.228 2.614,110.228 C4.058,110.228 5.228,109.058 5.228,107.614" id="Fill-23"></path>
                    </g>
                </g>
            </g>
        </g>
    </g>
</svg>