<?xml version="1.0" encoding="UTF-8" standalone="no"?>
<svg width="720px" height="512px" viewBox="0 0 720 512" version="1.1" xmlns="http://www.w3.org/2000/svg" xmlns:xlink="http://www.w3.org/1999/xlink">
    <!-- Generator: Sketch 40 (33762) - http://www.bohemiancoding.com/sketch -->
    <title>Page 1</title>
    <desc>Created with Sketch.</desc>
    <defs>
        <rect id="path-1" x="0" y="0" width="720" height="512"></rect>
        <mask id="mask-2" maskContentUnits="userSpaceOnUse" maskUnits="objectBoundingBox" x="0" y="0" width="720" height="512" fill="white">
            <use xlink:href="#path-1"></use>
        </mask>
        <mask id="mask-4" maskContentUnits="userSpaceOnUse" maskUnits="objectBoundingBox" x="0" y="0" width="720" height="512" fill="white">
            <use xlink:href="#path-1"></use>
        </mask>
    </defs>
    <g id="Screens" stroke="none" stroke-width="1" fill="none" fill-rule="evenodd">
        <g id="Home" transform="translate(0.000000, -1664.000000)">
            <g id="Page-1" transform="translate(0.000000, 1664.000000)">
                <mask id="mask-3" fill="white">
                    <use xlink:href="#path-1"></use>
                </mask>
                <g id="Mask" stroke-opacity="0.01" stroke="#FFFFFF" mask="url(#mask-2)" stroke-width="2">
                    <use mask="url(#mask-4)" xlink:href="#path-1"></use>
                </g>
                <g mask="url(#mask-3)">
                    <g transform="translate(360.500000, 283.000000) scale(-1, 1) translate(-360.500000, -283.000000) translate(62.000000, 203.000000)">
                        <path d="M593,10 L593,17" id="Stroke-1" stroke="#00ACC1" stroke-width="2" stroke-linecap="round" fill="none"></path>
                        <path d="M590,14 L597,14" id="Stroke-3" stroke="#00ACC1" stroke-width="2" stroke-linecap="round" fill="none"></path>
                        <path d="M114.3909,4.2032 C114.3909,6.4532 116.2149,8.2762 118.4639,8.2762 C120.7139,8.2762 122.5369,6.4532 122.5369,4.2032 C122.5369,1.9532 120.7139,0.1302 118.4639,0.1302 C116.2149,0.1302 114.3909,1.9532 114.3909,4.2032" id="Fill-5" stroke="none" fill="#F2F8EA" fill-rule="evenodd"></path>
                        <path d="M114.3909,4.2032 C114.3909,6.4532 116.2149,8.2762 118.4639,8.2762 C120.7139,8.2762 122.5369,6.4532 122.5369,4.2032 C122.5369,1.9532 120.7139,0.1302 118.4639,0.1302 C116.2149,0.1302 114.3909,1.9532 114.3909,4.2032 L114.3909,4.2032 Z" id="Stroke-7" stroke="#679F42" stroke-width="2" fill="none"></path>
                        <path d="M138.3909,155.2032 C138.3909,157.4532 140.2149,159.2762 142.4639,159.2762 C144.7139,159.2762 146.5369,157.4532 146.5369,155.2032 C146.5369,152.9532 144.7139,151.1302 142.4639,151.1302 C140.2149,151.1302 138.3909,152.9532 138.3909,155.2032" id="Fill-9" stroke="none" fill="#E0F8FA" fill-rule="evenodd"></path>
                        <path d="M138.3909,155.2032 C138.3909,157.4532 140.2149,159.2762 142.4639,159.2762 C144.7139,159.2762 146.5369,157.4532 146.5369,155.2032 C146.5369,152.9532 144.7139,151.1302 142.4639,151.1302 C140.2149,151.1302 138.3909,152.9532 138.3909,155.2032 L138.3909,155.2032 Z" id="Stroke-11" stroke="#00ACC1" stroke-width="2" fill="none"></path>
                        <path d="M4,85 L4,94" id="Stroke-13" stroke="#F9A825" stroke-width="2" stroke-linecap="round" stroke-linejoin="round" fill="none"></path>
                        <path d="M0,90 L9,90" id="Stroke-15" stroke="#F9A825" stroke-width="2" stroke-linecap="round" stroke-linejoin="round" fill="none"></path>
                        <path d="M504.3909,83.073 C504.3909,85.323 506.2149,87.146 508.4639,87.146 C510.7139,87.146 512.5369,85.323 512.5369,83.073 C512.5369,80.823 510.7139,79 508.4639,79 C506.2149,79 504.3909,80.823 504.3909,83.073" id="Fill-25" stroke="none" fill="#F2F8EA" fill-rule="evenodd"></path>
                        <path d="M504.3909,83.2032 C504.3909,85.4532 506.2149,87.2762 508.4639,87.2762 C510.7139,87.2762 512.5369,85.4532 512.5369,83.2032 C512.5369,80.9532 510.7139,79.1302 508.4639,79.1302 C506.2149,79.1302 504.3909,80.9532 504.3909,83.2032 L504.3909,83.2032 Z" id="Stroke-27" stroke="#679F42" stroke-width="2" fill="none"></path>
                    </g>
                </g>
            </g>
        </g>
    </g>
</svg>