<?xml version="1.0" encoding="UTF-8" standalone="no"?>
<svg width="720px" height="512px" viewBox="0 0 720 512" version="1.1" xmlns="http://www.w3.org/2000/svg" xmlns:xlink="http://www.w3.org/1999/xlink">
    <!-- Generator: Sketch 40 (33762) - http://www.bohemiancoding.com/sketch -->
    <title>plane</title>
    <desc>Created with Sketch.</desc>
    <defs>
        <rect id="path-1" x="0" y="0" width="720" height="512"></rect>
        <mask id="mask-2" maskContentUnits="userSpaceOnUse" maskUnits="objectBoundingBox" x="0" y="0" width="720" height="512" fill="white">
            <use xlink:href="#path-1"></use>
        </mask>
        <mask id="mask-4" maskContentUnits="userSpaceOnUse" maskUnits="objectBoundingBox" x="0" y="0" width="720" height="512" fill="white">
            <use xlink:href="#path-1"></use>
        </mask>
        <ellipse id="path-5" cx="124.083476" cy="124.083476" rx="124.083476" ry="124.083476"></ellipse>
        <polygon id="path-7" points="76.46456 12.7613704 75.421875 17.2482253 68.7115964 19.7502965 73.5665612 22.7483252 72.1207602 26.2437011 67.8185743 27.9506787 62.2172174 35.8359636 65.3352331 44.5717841 83.2899282 32.9559533 98.1572938 41.5202682 103.373845 59.8894872 97.0947003 82.7332506 103.184046 110.775307 109.229697 128.183732 115.612057 137.935194 124.974906 143.792194 135.268664 150.571347 137.944742 158.728761 140.546874 165.981502 147.96829 169.597425 139.434824 176.656352 137.549359 185.707352 137.525475 192.559316 135.991248 201.842603 140.717778 207.80553 143.083101 217.366075 137.056426 225.980159 131.39017 233.482159 116.314355 247.879517 119.356911 256.807846 140.899224 256.233942 137.883994 248.984958 155.455203 239.39582 168.109886 232.139002 173.140999 225.583359 181.882509 221.067276 188.37373 208.228734 193.527077 200.264107 186.87063 192.017131 187.873687 182.220267 175.729749 165.273309 165.192432 162.727583 154.513103 160.354553 150.747273 165.274343 145.621805 162.343401 145.671879 153.498448 139.30022 147.026322 141.303845 139.077467 130.80048 137.471756 126.81876 131.219913 129.543212 124.371394 134.735273 119.229433 145.076745 119.419812 151.327352 122.071632 152.922532 127.148064 151.72667 131.849284 156.596157 134.549738 159.788642 126.197872 171.017697 114.769791 186.272686 109.791027 201.972048 108.254442 206.277414 102.387799 201.649979 77.66699 194.907905 73.5352564 193.096201 62.1467729 184.728296 58.8578408 178.03468 77.0811101 171.65973 75.721867 161.468667 55.0441525 164.512263 46.8854701 180.299531 49.6501934 183.619018 39.7524495 134.915484 25.6793447 128.309843 19.3762054 119.180963 16.6747203 111.398029 18.9131007 102.848708 14.7632736 94.8978771 9.67959953 90.8221806 3.65937981"></polygon>
        <mask id="mask-8" maskContentUnits="userSpaceOnUse" maskUnits="objectBoundingBox" x="-3" y="-3" width="150.060196" height="259.148466">
            <rect x="59.2172174" y="0.659379808" width="150.060196" height="259.148466" fill="white"></rect>
            <use xlink:href="#path-7" fill="black"></use>
        </mask>
    </defs>
    <g id="Screens" stroke="none" stroke-width="1" fill="none" fill-rule="evenodd">
        <g id="Home" transform="translate(0.000000, -1664.000000)">
            <g id="plane" transform="translate(0.000000, 1664.000000)">
                <mask id="mask-3" fill="white">
                    <use xlink:href="#path-1"></use>
                </mask>
                <g id="Mask" stroke-opacity="0.01" stroke="#FFFFFF" mask="url(#mask-2)" stroke-width="2">
                    <use mask="url(#mask-4)" xlink:href="#path-1"></use>
                </g>
                <g mask="url(#mask-3)">
                    <g transform="translate(236.000000, 132.000000)">
                        <g id="Oval-55-+-Path-60" transform="translate(0.000000, 0.000000)">
                            <mask id="mask-6" fill="white">
                                <use xlink:href="#path-5"></use>
                            </mask>
                            <use id="Oval-55" fill="#F0EFEB" xlink:href="#path-5"></use>
                            <g id="Path-60" mask="url(#mask-6)">
                                <use fill="#FFFFFF" fill-rule="evenodd" xlink:href="#path-7"></use>
                                <use stroke="#FFFFFF" mask="url(#mask-8)" stroke-width="6" xlink:href="#path-7"></use>
                            </g>
                        </g>
                        <g id="Shape-+-Shape" transform="translate(42.538656, 24.833139)">
                            <polygon id="Shape" fill="#03ACC2" points="105.153312 103.944044 150.219018 187.860143 157.729969 180.349192 138.38927 70.7268639 105.153312 67.6849288"></polygon>
                            <path d="M117.152056,49.4708729 L7.51095088,30.0175101 L0,37.6411252 L83.9160987,82.7068305 L41.3102299,129.650274 L15.0219018,125.031039 L7.51095088,132.54199 L39.37616,148.483983 L55.3181532,180.349192 L62.8291041,172.838241 L58.2098693,146.549913 L105.153312,103.944044 L174.967601,34.1297557 C185.670706,23.4266507 187.473334,10.7894758 187.736217,8.51741318 C188.017878,6.07635414 187.172896,3.82306888 185.595596,2.26454657 C184.018297,0.687246885 181.765011,-0.15773509 179.34273,0.123925569 C177.070667,0.386808849 164.433492,2.18943706 153.730387,12.8925421" id="Shape" fill="#00BCD4"></path>
                        </g>
                    </g>
                </g>
            </g>
        </g>
    </g>
</svg>