<?xml version="1.0" encoding="UTF-8" standalone="no"?>
<svg width="594px" height="444px" viewBox="0 0 594 444" version="1.1" xmlns="http://www.w3.org/2000/svg" xmlns:xlink="http://www.w3.org/1999/xlink">
    <!-- Generator: Sketch 40 (33762) - http://www.bohemiancoding.com/sketch -->
    <title>fg</title>
    <desc>Created with Sketch.</desc>
    <defs>
        <rect id="path-1" x="0" y="0" width="594" height="444"></rect>
        <mask id="mask-2" maskContentUnits="userSpaceOnUse" maskUnits="objectBoundingBox" x="0" y="0" width="594" height="444" fill="white">
            <use xlink:href="#path-1"></use>
        </mask>
        <mask id="mask-4" maskContentUnits="userSpaceOnUse" maskUnits="objectBoundingBox" x="0" y="0" width="594" height="444" fill="white">
            <use xlink:href="#path-1"></use>
        </mask>
    </defs>
    <g id="Screens" stroke="none" stroke-width="1" fill="none" fill-rule="evenodd">
        <g id="Home" transform="translate(-781.000000, -2274.000000)">
            <g id="lines" transform="translate(1078.000000, 2496.000000) scale(-1, 1) translate(-1078.000000, -2496.000000) translate(781.000000, 2274.000000)">
                <g id="Group-44">
                    <g id="fg">
                        <mask id="mask-3" fill="white">
                            <use xlink:href="#path-1"></use>
                        </mask>
                        <g id="Mask" stroke-opacity="0.0109544837" stroke="#FFFFFF" mask="url(#mask-2)" stroke-width="2">
                            <use mask="url(#mask-4)" xlink:href="#path-1"></use>
                        </g>
                        <g mask="url(#mask-3)">
                            <g transform="translate(10.000000, 179.000000)">
                                <path d="M2.658,173.58 L2.658,323 C2.658,323.552 3.105,324 3.658,324 C4.21,324 4.658,323.552 4.658,323 L4.658,173.58 C4.658,173.028 4.21,172.58 3.658,172.58 C3.105,172.58 2.658,173.028 2.658,173.58" id="Fill-4" fill="#27B5C3"></path>
                                <path d="M65.098,3.724 L65.098,323 C65.098,323.552 65.545,324 66.098,324 C66.65,324 67.098,323.552 67.098,323 L67.098,3.724 C67.098,3.172 66.65,2.724 66.098,2.724 C65.545,2.724 65.098,3.172 65.098,3.724" id="Fill-7" fill="#F6BD27"></path>
                                <path d="M127.537,127.22 L127.537,323 C127.537,323.552 127.984,324 128.537,324 C129.089,324 129.537,323.552 129.537,323 L129.537,127.22 C129.537,126.667 129.089,126.22 128.537,126.22 C127.984,126.22 127.537,126.667 127.537,127.22" id="Fill-11" fill="#82BA4A"></path>
                                <path d="M475.731,87.131 L475.731,323 C475.731,323.552 476.179,324 476.731,324 C477.284,324 477.731,323.552 477.731,323 L477.731,87.131 C477.731,86.579 477.284,86.131 476.731,86.131 C476.179,86.131 475.731,86.579 475.731,87.131" id="Fill-20" fill="#82BA4A"></path>
                                <path d="M538.56,66.899 L538.56,307 C538.56,307.552 539.01,308 539.56,308 C540.11,308 540.56,307.552 540.56,307 L540.56,66.899 C540.56,66.347 540.11,65.899 539.56,65.899 C539.01,65.899 538.56,66.347 538.56,66.899" id="Fill-42" fill="#F6BD27"></path>
                                <path d="M131.537,127.22 C131.537,125.563 130.193,124.22 128.537,124.22 C126.879,124.22 125.537,125.563 125.537,127.22 C125.537,128.877 126.879,130.22 128.537,130.22 C130.193,130.22 131.537,128.877 131.537,127.22" id="Fill-46" fill="#639841"></path>
                                <path d="M479.731,87.131 C479.731,85.474 478.389,84.131 476.731,84.131 C475.075,84.131 473.731,85.474 473.731,87.131 C473.731,88.788 475.075,90.131 476.731,90.131 C478.389,90.131 479.731,88.788 479.731,87.131" id="Fill-47" fill="#639841"></path>
                                <path d="M6.658,173.58 C6.658,171.923 5.315,170.58 3.658,170.58 C2.002,170.58 0.658,171.923 0.658,173.58 C0.658,175.237 2.002,176.58 3.658,176.58 C5.315,176.58 6.658,175.237 6.658,173.58" id="Fill-49" fill="#1B8E97"></path>
                                <path d="M69.098,3.724 C69.098,2.067 67.754,0.724 66.098,0.724 C64.44,0.724 63.098,2.067 63.098,3.724 C63.098,5.381 64.44,6.724 66.098,6.724 C67.754,6.724 69.098,5.381 69.098,3.724" id="Fill-51" fill="#EA842C"></path>
                                <path d="M542.56,66.897 C542.56,65.24 541.22,63.897 539.56,63.897 C537.9,63.897 536.56,65.24 536.56,66.897 C536.56,68.554 537.9,69.897 539.56,69.897 C541.22,69.897 542.56,68.554 542.56,66.897" id="Fill-53" fill="#EA842C"></path>
                            </g>
                        </g>
                    </g>
                </g>
            </g>
        </g>
    </g>
</svg>