<?xml version="1.0" encoding="UTF-8"?>
<svg width="697px" height="501px" viewBox="0 0 697 501" version="1.1" xmlns="http://www.w3.org/2000/svg" xmlns:xlink="http://www.w3.org/1999/xlink">
    <!-- Generator: Sketch 44 (41411) - http://www.bohemiancoding.com/sketch -->
    <title>Artboard</title>
    <desc>Created with Sketch.</desc>
    <defs></defs>
    <g id="Page-1" stroke="none" stroke-width="1" fill="none" fill-rule="evenodd">
        <g id="Artboard">
            <g id="Group-2" transform="translate(161.000000, 94.000000)">
                <g id="Group-3" transform="translate(5.334225, 192.749357)" stroke-width="2.016">
                    <ellipse id="Oval" stroke="#F9A825" fill="#FFE082" opacity="0.2" cx="39.9066706" cy="40.1915057" rx="39.6066205" ry="39.8866385"></ellipse>
                    <ellipse id="Oval" stroke="#F9A825" fill="#FFE082" opacity="0.3" cx="39.9066706" cy="40.1915057" rx="26.1043635" ry="26.2889208"></ellipse>
                    <ellipse id="Oval" stroke="#F9A825" fill="#FFE082" opacity="0.5" cx="39.9066706" cy="40.1915057" rx="12.9688345" ry="13.0605239"></ellipse>
                    <path d="M39.8733317,40.0236327 L25.2375519,126.64613" id="Shape" stroke="#00ACC1"></path>
                    <path d="M39.8733317,40.0236327 L54.4757726,126.64613" id="Shape" stroke="#00ACC1"></path>
                    <ellipse id="Oval" stroke="#F9A825" fill="#FFFFFF" cx="39.9066706" cy="40.1915057" rx="2.30038452" ry="2.31664819"></ellipse>
                    <path d="M28.6714593,98.1327353 L51.3419155,98.1327353" id="Shape" stroke="#00ACC1"></path>
                    <path d="M24.6707905,117.759282 L55.3425842,117.759282" id="Shape" stroke="#00ACC1"></path>
                    <path d="M31.6719608,78.5061883 L48.3414139,78.5061883" id="Shape" stroke="#00ACC1"></path>
                    <path d="M33.6722952,62.4481043 L46.3410795,62.4481043" id="Shape" stroke="#00ACC1"></path>
                    <path d="M29.8716599,99.282822 L53.2088942,119.091843" id="Shape" stroke="#00ACC1"></path>
                    <path d="M26.5044304,119.091843 L49.8750036,99.282822" id="Shape" stroke="#00ACC1"></path>
                    <path d="M29.8716599,99.282822 L46.4744352,79.1380551" id="Shape" stroke="#00ACC1"></path>
                    <path d="M33.2722283,79.1380551 L49.8750036,99.282822" id="Shape" stroke="#00ACC1"></path>
                    <path d="M36.0393575,62.6193462 L46.4744352,79.1380551" id="Shape" stroke="#00ACC1"></path>
                    <path d="M43.673967,62.6193462 L33.2722283,79.1380551" id="Shape" stroke="#00ACC1"></path>
                </g>
                <g id="Group-19" transform="translate(0.884864, 64.232336)">
                    <ellipse id="Oval-7" fill="#0F9D58" cx="45.7629339" cy="32.1161679" rx="32.5121013" ry="32.1161679"></ellipse>
                    <path d="M33.7858622,35.3586373 L40.0040256,35.3586373 L40.0040256,37.2604146 L31.4058391,37.2604146 L31.4058391,23.5525549 L33.7858622,23.5525549 L33.7858622,35.3586373 Z M49.7592985,25.4731616 L45.4884269,25.4731616 L45.4884269,37.2604146 L43.1272181,37.2604146 L43.1272181,25.4731616 L38.8939753,25.4731616 L38.8939753,23.5525549 L49.7592985,23.5525549 L49.7592985,25.4731616 Z M59.5616074,31.1408343 L53.9360981,31.1408343 L53.9360981,35.3586373 L60.5117353,35.3586373 L60.5117353,37.2604146 L51.5560749,37.2604146 L51.5560749,23.5525549 L60.4458848,23.5525549 L60.4458848,25.4731616 L53.9360981,25.4731616 L53.9360981,29.2578866 L59.5616074,29.2578866 L59.5616074,31.1408343 Z" id="LTE" fill="#FFFFFF"></path>
                    <path d="M35.8115331,28.3102059 L78.6367093,70.6138558 L15.4282255,93.4882044 C14.1728612,93.9425049 13.5065176,93.2873223 13.9416495,92.019732 L35.8115331,28.3102059 Z" id="Rectangle-8" fill="#0F9D58" transform="translate(46.222594, 60.971258) rotate(-45.000000) translate(-46.222594, -60.971258) "></path>
                </g>
                <g id="Group-19" transform="translate(283.598788, 64.232336)">
                    <ellipse id="Oval-7" fill="#F4B400" cx="45.7629339" cy="32.1161679" rx="32.5121013" ry="32.1161679"></ellipse>
                    <path d="M39.2595585,33.8711086 L41.3667727,23.5525549 L43.7279814,23.5525549 L40.5671601,37.2604146 L38.2906162,37.2604146 L35.6848201,27.2525472 L33.0225807,37.2604146 L30.7366296,37.2604146 L27.5758083,23.5525549 L29.937017,23.5525549 L32.0630457,33.8522791 L34.678249,23.5525549 L36.6725767,23.5525549 L39.2595585,33.8711086 Z M47.6790081,37.2604146 L45.393057,37.2604146 L45.393057,27.0736672 L47.6790081,27.0736672 L47.6790081,37.2604146 Z M45.2519489,24.4281256 C45.2519489,24.0766402 45.3632664,23.7847863 45.5859047,23.5525549 C45.808543,23.3203235 46.126817,23.2042095 46.5407361,23.2042095 C46.9546553,23.2042095 47.2744971,23.3203235 47.5002712,23.5525549 C47.7260452,23.7847863 47.8389306,24.0766402 47.8389306,24.4281256 C47.8389306,24.7733344 47.7260452,25.0604811 47.5002712,25.2895742 C47.2744971,25.5186673 46.9546553,25.6332121 46.5407361,25.6332121 C46.126817,25.6332121 45.808543,25.5186673 45.5859047,25.2895742 C45.3632664,25.0604811 45.2519489,24.7733344 45.2519489,24.4281256 Z M58.2809296,31.4515207 L52.7683067,31.4515207 L52.7683067,37.2604146 L50.3882835,37.2604146 L50.3882835,23.5525549 L59.0899493,23.5525549 L59.0899493,25.4731616 L52.7683067,25.4731616 L52.7683067,29.5497435 L58.2809296,29.5497435 L58.2809296,31.4515207 Z M63.182084,37.2604146 L60.8961329,37.2604146 L60.8961329,27.0736672 L63.182084,27.0736672 L63.182084,37.2604146 Z M60.7550248,24.4281256 C60.7550248,24.0766402 60.8663423,23.7847863 61.0889806,23.5525549 C61.311619,23.3203235 61.6298929,23.2042095 62.0438121,23.2042095 C62.4577312,23.2042095 62.777573,23.3203235 63.0033471,23.5525549 C63.2291212,23.7847863 63.3420065,24.0766402 63.3420065,24.4281256 C63.3420065,24.7733344 63.2291212,25.0604811 63.0033471,25.2895742 C62.777573,25.5186673 62.4577312,25.6332121 62.0438121,25.6332121 C61.6298929,25.6332121 61.311619,25.5186673 61.0889806,25.2895742 C60.8663423,25.0604811 60.7550248,24.7733344 60.7550248,24.4281256 Z" id="WiFi" fill="#FFFFFF"></path>
                    <path d="M35.8115331,28.3102059 L78.6367093,70.6138558 L15.4282255,93.4882044 C14.1728612,93.9425049 13.5065176,93.2873223 13.9416495,92.019732 L35.8115331,28.3102059 Z" id="Rectangle-8" fill="#F4B400" transform="translate(46.222594, 60.971258) rotate(-45.000000) translate(-46.222594, -60.971258) "></path>
                </g>
                <g id="Group-19" transform="translate(139.574713, 0.000000)">
                    <ellipse id="Oval-7" fill="#00BCD4" cx="45.7629339" cy="32.1161679" rx="32.5121013" ry="32.1161679"></ellipse>
                    <path d="M42.2617551,32.3741651 L43.9644594,32.3741651 L43.9644594,34.2100392 L42.2617551,34.2100392 L42.2617551,37.2604146 L39.975804,37.2604146 L39.975804,34.2100392 L34.0586712,34.2100392 L33.9928208,32.8166579 L39.9005463,23.5525549 L42.2617551,23.5525549 L42.2617551,32.3741651 Z M36.3916584,32.3741651 L39.975804,32.3741651 L39.975804,26.6500039 L39.8064743,26.9512756 L36.3916584,32.3741651 Z M56.3443429,35.4810289 C55.8488942,36.1275109 55.162175,36.6170724 54.2841647,36.9497282 C53.4061544,37.282384 52.4090005,37.4487093 51.2926731,37.4487093 C50.1449882,37.4487093 49.1290201,37.1882375 48.2447383,36.667286 C47.3604565,36.1463345 46.6784408,35.4010085 46.1986709,34.4312856 C45.718901,33.4615626 45.4696125,32.3302361 45.450798,31.0372722 L45.450798,29.963992 C45.450798,27.8927391 45.9462393,26.2749893 46.9371366,25.1106941 C47.928034,23.946399 49.3108795,23.3642601 51.0857146,23.3642601 C52.6096896,23.3642601 53.8200714,23.7408459 54.7168962,24.4940287 C55.613721,25.2472116 56.1530621,26.333034 56.3349357,27.7515284 L54.0019485,27.7515284 C53.7385454,26.1008026 52.7821557,25.2754521 51.1327506,25.2754521 C50.0665952,25.2754521 49.2560157,25.6598834 48.7009878,26.4287576 C48.1459598,27.1976318 47.8590429,28.32582 47.8402284,29.8133562 L47.8402284,30.8678069 C47.8402284,32.3490666 48.152231,33.4992223 48.7762454,34.3183087 C49.4002599,35.1373951 50.2672821,35.5469321 51.377338,35.5469321 C52.5940094,35.5469321 53.4594637,35.2707692 53.9737269,34.7184351 L53.9737269,32.0352345 L51.151565,32.0352345 L51.151565,30.2276047 L56.3443429,30.2276047 L56.3443429,35.4810289 Z" id="4G" fill="#FFFFFF"></path>
                    <path d="M35.8115331,28.3102059 L78.6367093,70.6138558 L15.4282255,93.4882044 C14.1728612,93.9425049 13.5065176,93.2873223 13.9416495,92.019732 L35.8115331,28.3102059 Z" id="Rectangle-8" fill="#00BCD4" transform="translate(46.222594, 60.971258) rotate(-45.000000) translate(-46.222594, -60.971258) "></path>
                </g>
                <g id="Group-3" transform="translate(289.826224, 192.749357)" stroke-width="2.016">
                    <ellipse id="Oval" stroke="#F9A825" fill="#FFE082" opacity="0.2" cx="39.9066706" cy="40.1915057" rx="39.6066205" ry="39.8866385"></ellipse>
                    <ellipse id="Oval" stroke="#F9A825" fill="#FFE082" opacity="0.3" cx="39.9066706" cy="40.1915057" rx="26.1043635" ry="26.2889208"></ellipse>
                    <ellipse id="Oval" stroke="#F9A825" fill="#FFE082" opacity="0.5" cx="39.9066706" cy="40.1915057" rx="12.9688345" ry="13.0605239"></ellipse>
                    <path d="M39.8733317,40.0236327 L25.2375519,126.64613" id="Shape" stroke="#00ACC1"></path>
                    <path d="M39.8733317,40.0236327 L54.4757726,126.64613" id="Shape" stroke="#00ACC1"></path>
                    <ellipse id="Oval" stroke="#F9A825" fill="#FFFFFF" cx="39.9066706" cy="40.1915057" rx="2.30038452" ry="2.31664819"></ellipse>
                    <path d="M28.6714593,98.1327353 L51.3419155,98.1327353" id="Shape" stroke="#00ACC1"></path>
                    <path d="M24.6707905,117.759282 L55.3425842,117.759282" id="Shape" stroke="#00ACC1"></path>
                    <path d="M31.6719608,78.5061883 L48.3414139,78.5061883" id="Shape" stroke="#00ACC1"></path>
                    <path d="M33.6722952,62.4481043 L46.3410795,62.4481043" id="Shape" stroke="#00ACC1"></path>
                    <path d="M29.8716599,99.282822 L53.2088942,119.091843" id="Shape" stroke="#00ACC1"></path>
                    <path d="M26.5044304,119.091843 L49.8750036,99.282822" id="Shape" stroke="#00ACC1"></path>
                    <path d="M29.8716599,99.282822 L46.4744352,79.1380551" id="Shape" stroke="#00ACC1"></path>
                    <path d="M33.2722283,79.1380551 L49.8750036,99.282822" id="Shape" stroke="#00ACC1"></path>
                    <path d="M36.0393575,62.6193462 L46.4744352,79.1380551" id="Shape" stroke="#00ACC1"></path>
                    <path d="M43.673967,62.6193462 L33.2722283,79.1380551" id="Shape" stroke="#00ACC1"></path>
                </g>
                <g id="Group" transform="translate(0.000000, 292.666324)" fill="#FAFAFA">
                    <path d="M187.386796,49.9584834 C289.355742,49.9584834 372.017905,40.7719652 372.017905,29.4398206 C372.017905,18.107676 289.355742,0 187.386796,0 C85.417851,0 2.75568818,18.107676 2.75568818,29.4398206 C2.75568818,40.7719652 85.417851,49.9584834 187.386796,49.9584834 Z" id="Oval-2" stroke="#00ACC1" stroke-width="2.016"></path>
                    <rect id="Rectangle" x="0" y="21.4107786" width="373.395749" height="41.0373257"></rect>
                </g>
                <g id="Group-3" transform="translate(126.243325, 130.301252)" stroke-width="2.016">
                    <ellipse id="Oval" stroke="#F9A825" fill="#FFE082" opacity="0.2" cx="60.3034134" cy="60.5702974" rx="59.8500043" ry="60.1108495"></ellipse>
                    <ellipse id="Oval" stroke="#F9A825" fill="#FFE082" opacity="0.3" cx="60.3034134" cy="60.5702974" rx="39.4465937" ry="39.6185144"></ellipse>
                    <ellipse id="Oval" stroke="#F9A825" fill="#FFE082" opacity="0.5" cx="60.3034134" cy="60.5702974" rx="19.5973499" ry="19.6827613"></ellipse>
                    <path d="M60.2530346,60.3173056 L38.1367452,190.86107" id="Shape" stroke="#00ACC1"></path>
                    <path d="M60.2530346,60.3173056 L82.3189453,190.86107" id="Shape" stroke="#00ACC1"></path>
                    <ellipse id="Oval" stroke="#F9A825" fill="#FFFFFF" cx="60.3034134" cy="60.5702974" rx="3.47613661" ry="3.49128671"></ellipse>
                    <path d="M43.3257607,146.306987 L77.5833389,146.306987" id="Shape" stroke="#00ACC1"></path>
                    <path d="M37.2803057,176.638924 L83.6287939,176.638924" id="Shape" stroke="#00ACC1"></path>
                    <path d="M47.8598519,117.759282 L73.0492477,117.759282" id="Shape" stroke="#00ACC1"></path>
                    <path d="M50.8825794,92.7800407 L70.0265202,92.7800407" id="Shape" stroke="#00ACC1"></path>
                    <path d="M45.1393972,149.623408 L80.4045512,179.476439" id="Shape" stroke="#00ACC1"></path>
                    <path d="M40.0511392,179.476439 L75.3666721,149.623408" id="Shape" stroke="#00ACC1"></path>
                    <path d="M45.1393972,149.623408 L70.2280353,119.264393" id="Shape" stroke="#00ACC1"></path>
                    <path d="M50.2780339,119.264393 L75.3666721,149.623408" id="Shape" stroke="#00ACC1"></path>
                    <path d="M54.4594736,94.3700006 L70.2280353,119.264393" id="Shape" stroke="#00ACC1"></path>
                    <path d="M65.9962169,94.3700006 L50.2780339,119.264393" id="Shape" stroke="#00ACC1"></path>
                </g>
            </g>
        </g>
    </g>
</svg>